<?xml version="1.0" standalone="no"?>
<!DOCTYPE svg PUBLIC "-//W3C//DTD SVG 20010904//EN"
 "http://www.w3.org/TR/2001/REC-SVG-20010904/DTD/svg10.dtd">
<svg version="1.0" xmlns="http://www.w3.org/2000/svg"
 width="1024.000000pt" height="1024.000000pt" viewBox="0 0 1024.000000 1024.000000"
 preserveAspectRatio="xMidYMid meet">
<metadata>
Created by potrace 1.14, written by Peter Selinger 2001-2017
</metadata>
<g transform="translate(0.000000,1024.000000) scale(0.100000,-0.100000)"
fill="#000000" stroke="none">
<path d="M5120 10166 c0 -2 8 -10 18 -17 15 -13 16 -12 3 4 -13 16 -21 21 -21
13z"/>
<path d="M4653 10144 c4 -7 0 -17 -8 -24 -8 -7 -15 -18 -15 -24 0 -6 7 -3 14
6 7 10 16 15 19 12 3 -3 4 1 3 10 -1 8 -6 19 -11 23 -4 4 -5 3 -2 -3z"/>
<path d="M4985 10140 c-3 -6 1 -7 9 -4 18 7 21 14 7 14 -6 0 -13 -4 -16 -10z"/>
<path d="M5210 10139 c0 -5 5 -7 10 -4 6 3 10 8 10 11 0 2 -4 4 -10 4 -5 0
-10 -5 -10 -11z"/>
<path d="M5265 10139 c-3 -4 2 -6 10 -5 21 3 28 13 10 13 -9 0 -18 -4 -20 -8z"/>
<path d="M5323 10143 c-7 -2 -13 -11 -13 -20 0 -10 -6 -12 -20 -8 -11 3 -20 2
-20 -3 0 -8 14 -9 54 -3 5 0 6 4 3 8 -4 3 -2 12 4 20 12 14 11 14 -8 6z"/>
<path d="M5386 10142 c-3 -5 1 -9 9 -9 8 0 15 4 15 9 0 4 -4 8 -9 8 -6 0 -12
-4 -15 -8z"/>
<path d="M5555 10141 c-3 -5 -2 -12 3 -15 5 -3 9 1 9 9 0 17 -3 19 -12 6z"/>
<path d="M4470 10136 c0 -2 8 -10 18 -17 15 -13 16 -12 3 4 -13 16 -21 21 -21
13z"/>
<path d="M4609 10123 c-13 -16 -12 -17 4 -4 9 7 17 15 17 17 0 8 -8 3 -21 -13z"/>
<path d="M4835 10130 c3 -5 8 -10 11 -10 2 0 4 5 4 10 0 6 -5 10 -11 10 -5 0
-7 -4 -4 -10z"/>
<path d="M4944 10117 c2 -15 -1 -30 -5 -33 -8 -5 -14 17 -10 39 0 4 -4 7 -10
7 -6 0 -9 -6 -6 -13 3 -8 1 -20 -4 -28 -7 -12 -9 -11 -9 2 0 9 -10 19 -22 22
-21 5 -21 5 -5 -7 9 -7 17 -15 17 -17 0 -2 -30 -4 -67 -3 -38 0 -71 -5 -75
-10 -5 -7 -8 -6 -8 3 0 10 -3 11 -14 2 -11 -10 -16 -8 -21 8 -5 17 -9 19 -30
9 -14 -6 -22 -15 -19 -19 10 -17 -25 -9 -36 9 -11 16 -11 16 -6 0 6 -20 -10
-25 -17 -5 -4 8 -6 7 -6 -3 -1 -16 -61 -26 -61 -10 0 5 -9 14 -20 20 -16 9
-18 8 -14 -5 3 -8 10 -12 15 -9 5 3 6 -1 4 -9 -4 -8 -21 -14 -43 -14 -20 -1
-48 -4 -62 -8 -45 -12 -65 -11 -78 5 -11 13 -11 13 -6 -1 3 -10 0 -20 -7 -25
-8 -4 -10 -3 -5 4 4 7 2 12 -3 12 -6 0 -11 -4 -11 -8 0 -4 -9 -8 -19 -8 -11 0
-17 5 -15 11 3 5 0 3 -8 -5 -18 -21 -62 -20 -66 3 -2 9 -8 17 -13 17 -6 0 -6
-7 1 -19 14 -27 13 -28 -12 -27 -13 1 -26 -3 -30 -9 -5 -6 -8 -3 -8 6 0 20
-27 33 -36 18 -3 -6 -3 -13 0 -16 3 -4 6 -1 6 6 0 7 5 9 10 6 16 -10 12 -21
-9 -22 -10 -1 -38 -7 -62 -14 -24 -7 -54 -12 -66 -11 -13 0 -23 -3 -23 -9 0
-5 -6 -4 -14 3 -8 7 -12 16 -10 19 2 3 -3 6 -9 6 -7 0 -14 -10 -15 -21 -1 -15
1 -17 7 -7 6 9 11 10 15 2 4 -6 2 -11 -3 -11 -19 0 -26 -2 -45 -12 -11 -6 -16
-6 -13 0 6 9 -42 37 -50 28 -2 -2 5 -7 16 -11 12 -3 21 -11 21 -16 0 -6 -4 -7
-10 -4 -5 3 -10 1 -10 -5 0 -7 -7 -10 -15 -7 -8 4 -17 2 -20 -3 -4 -6 -11 -10
-17 -10 -6 0 -6 6 2 15 7 9 19 14 27 11 7 -3 13 -1 13 4 0 6 -6 10 -14 10 -16
0 -46 -26 -46 -41 0 -17 -29 -9 -51 14 l-21 22 12 -24 c15 -28 1 -42 -37 -35
-15 3 -22 1 -18 -6 3 -6 -3 -10 -15 -10 -12 0 -34 -7 -50 -15 -17 -9 -30 -12
-30 -8 0 4 -5 2 -12 -5 -7 -7 -16 -12 -22 -12 -5 0 0 9 12 20 12 12 22 26 22
32 0 6 -12 -5 -27 -25 -24 -31 -64 -62 -49 -38 3 5 -1 11 -9 14 -10 4 -12 1
-9 -11 5 -14 2 -13 -11 3 -17 20 -17 20 -10 -4 5 -15 4 -21 -3 -17 -6 3 -14 1
-17 -5 -4 -5 -13 -8 -20 -5 -8 3 -15 1 -17 -5 -2 -5 -13 -11 -26 -14 -12 -2
-26 -6 -31 -10 -5 -3 -12 -1 -16 5 -3 5 1 10 9 10 8 0 17 4 20 9 12 18 -33 -1
-51 -22 -16 -19 -16 -20 0 -8 9 7 17 9 17 3 0 -17 -29 -22 -44 -7 -22 23 -32
18 -11 -5 18 -19 17 -20 -6 -20 -14 0 -30 5 -37 12 -8 8 -12 9 -12 1 0 -6 6
-14 13 -16 9 -4 8 -8 -3 -16 -19 -14 -30 -14 -30 0 0 5 4 7 10 4 6 -4 7 1 3
11 -5 14 -8 13 -19 -8 -16 -30 -60 -53 -70 -36 -5 7 -3 8 6 3 9 -5 11 -4 6 3
-4 7 -2 10 7 6 8 -3 20 2 27 10 10 13 9 17 -4 22 -9 3 -13 11 -9 17 4 6 1 7
-7 2 -10 -6 -9 -11 4 -21 17 -12 5 -31 -13 -20 -5 3 -14 -1 -21 -9 -7 -8 -16
-13 -19 -10 -4 2 -8 -2 -8 -10 0 -11 4 -12 14 -4 9 8 13 8 13 0 0 -6 -4 -11
-10 -11 -20 0 -25 -2 -39 -13 -12 -10 -12 -8 -2 13 11 24 11 24 -3 6 -9 -11
-16 -23 -16 -28 0 -4 -3 -7 -7 -7 -21 3 -33 -2 -27 -12 4 -8 -1 -9 -16 -4 -17
5 -21 4 -15 -5 5 -8 4 -11 -2 -7 -6 4 -16 0 -23 -8 -12 -14 -44 -10 -35 5 3 4
-2 11 -11 14 -15 6 -15 4 0 -19 16 -24 16 -25 -7 -25 -13 0 -28 5 -35 10 -6 6
-9 7 -7 3 3 -4 -11 -17 -32 -30 -21 -13 -34 -23 -29 -23 5 0 23 9 42 20 24 15
34 17 40 9 4 -7 3 -9 -3 -6 -5 4 -19 -2 -29 -11 -10 -10 -23 -20 -29 -21 -32
-11 -42 -15 -57 -29 -17 -14 -54 -9 -44 6 3 5 -2 9 -10 9 -10 0 -11 -4 -4 -11
17 -17 11 -34 -12 -42 -13 -4 -39 -18 -58 -31 l-35 -24 -17 22 c-10 11 -16 25
-13 29 3 5 0 12 -7 16 -7 4 -10 4 -6 -1 4 -4 2 -15 -4 -24 -7 -9 -8 -13 -4 -9
5 4 15 0 22 -10 21 -27 16 -34 -11 -16 -14 9 -28 14 -31 11 -3 -3 4 -8 15 -12
12 -3 21 -10 21 -14 0 -12 -26 -32 -32 -26 -3 3 -13 -4 -23 -15 -10 -11 -22
-20 -28 -20 -5 0 -22 -11 -39 -25 -31 -27 -58 -35 -36 -11 7 8 16 12 20 9 4
-2 5 3 1 13 -5 15 -7 15 -15 0 -5 -9 -14 -14 -19 -10 -5 3 -9 2 -8 -3 5 -26
-5 -43 -33 -61 -18 -11 -47 -29 -65 -41 -22 -14 -34 -17 -39 -9 -5 7 -3 8 6 3
9 -5 11 -4 6 4 -10 16 -26 4 -20 -14 4 -9 -3 -18 -17 -24 -13 -5 -20 -10 -14
-10 5 -1 -2 -9 -15 -18 -14 -10 -27 -17 -30 -17 -3 0 -13 -9 -23 -20 -10 -12
-16 -16 -13 -10 3 7 -1 15 -10 18 -21 8 -24 8 -24 -5 0 -5 5 -7 10 -4 16 10
12 -21 -4 -35 -8 -6 -31 -12 -50 -14 -19 -1 -38 -5 -43 -10 -4 -5 -3 -6 4 -3
6 4 14 1 16 -5 4 -10 6 -10 6 0 1 6 6 12 11 12 17 0 11 -14 -15 -33 -17 -12
-26 -14 -31 -5 -5 7 -3 8 7 3 8 -5 11 -4 6 1 -5 5 -12 9 -15 9 -4 0 -14 4 -22
10 -12 7 -13 6 -3 -7 7 -8 9 -19 5 -23 -4 -5 -1 -5 5 -1 8 4 13 1 13 -8 0 -17
-12 -21 -24 -9 -10 11 -37 12 -30 2 3 -5 10 -7 15 -4 5 4 9 1 9 -4 0 -6 -5
-11 -11 -11 -5 0 -8 -4 -5 -9 10 -15 -25 -22 -42 -9 -13 11 -14 11 -7 -1 6
-11 4 -13 -9 -8 -14 6 -15 3 -5 -14 9 -17 7 -23 -10 -36 -12 -8 -33 -26 -49
-41 -66 -67 -81 -76 -97 -62 -10 8 -15 9 -15 1 0 -6 5 -11 10 -11 17 0 11 -18
-9 -25 -10 -3 -21 -15 -24 -26 -3 -11 -15 -23 -26 -26 -12 -3 -18 -10 -14 -17
3 -6 3 -8 -2 -4 -5 5 -13 -2 -20 -15 -6 -12 -17 -21 -23 -20 -7 2 -12 -4 -12
-12 0 -18 -11 -19 -29 -2 -11 10 -12 9 -6 -2 6 -10 2 -12 -16 -7 -20 6 -21 5
-6 -4 9 -6 22 -8 27 -5 6 3 10 2 10 -4 0 -5 -9 -13 -20 -16 -11 -3 -20 -12
-20 -19 0 -7 -12 -24 -27 -38 -16 -13 -40 -39 -56 -56 -15 -18 -33 -32 -40
-32 -6 0 -1 10 13 21 17 14 21 22 12 26 -6 2 -10 8 -7 13 7 11 -22 7 -32 -5
-4 -4 -3 -5 3 -2 7 4 18 0 25 -9 11 -14 10 -15 -6 -12 -22 3 -28 -19 -11 -40
8 -11 5 -13 -10 -10 -10 1 -22 12 -26 23 -6 17 -7 16 -5 -5 1 -14 8 -24 15
-23 14 4 16 -13 2 -22 -6 -3 -17 1 -26 9 -23 24 -27 19 -8 -10 17 -25 16 -26
-15 -57 -26 -27 -33 -30 -41 -17 -6 9 -10 10 -10 3 0 -6 5 -15 10 -18 6 -4 4
-12 -5 -21 -8 -9 -19 -13 -24 -9 -6 3 -15 -5 -21 -17 -11 -22 -10 -22 4 -4 17
21 22 11 7 -13 -5 -8 -16 -11 -25 -8 -9 4 -16 2 -16 -3 0 -6 6 -10 13 -10 9 0
9 -2 -1 -9 -8 -4 -13 -11 -13 -15 1 -3 -1 -6 -4 -6 -3 0 -10 0 -16 0 -8 0 -7
6 2 18 12 15 12 16 -2 5 -9 -7 -18 -10 -21 -7 -3 2 -8 -2 -11 -10 -4 -11 -1
-13 10 -9 12 5 14 3 8 -7 -6 -9 -4 -11 5 -5 10 6 12 4 7 -9 -4 -10 -7 -20 -7
-22 0 -3 -4 -3 -9 1 -5 3 -12 -4 -16 -15 -3 -11 -13 -20 -20 -20 -8 0 -17 -5
-21 -12 -5 -8 -2 -9 11 -4 16 6 16 4 4 -11 -34 -45 -48 -54 -69 -43 -16 9 -18
8 -14 -5 3 -8 10 -13 14 -10 5 3 11 1 15 -5 6 -10 -6 -14 -35 -11 -12 1 -11
-1 2 -9 16 -10 16 -12 0 -40 -13 -22 -22 -28 -37 -24 -16 4 -17 3 -5 -5 8 -5
11 -13 7 -17 -3 -4 -15 -1 -24 7 -16 12 -17 12 -7 -1 13 -17 10 -53 -5 -58 -6
-2 -11 -9 -11 -16 0 -6 -9 -19 -20 -29 -11 -9 -20 -24 -20 -32 0 -8 -5 -15
-12 -15 -6 0 -8 -3 -4 -7 3 -4 -4 -13 -16 -20 -13 -7 -17 -12 -10 -13 10 0 10
-4 0 -19 -7 -11 -16 -17 -20 -15 -8 5 -12 -10 -9 -35 2 -7 -2 -10 -8 -6 -6 3
-12 1 -12 -4 -3 -20 -5 -26 -18 -51 -8 -14 -19 -28 -25 -32 -6 -4 -12 -12 -12
-18 -1 -5 -2 -15 -3 -21 0 -5 -6 -7 -11 -4 -6 4 -10 -5 -10 -19 0 -14 -5 -26
-11 -26 -5 0 -8 -4 -5 -9 3 -5 -1 -14 -9 -21 -8 -7 -15 -19 -15 -26 0 -8 -4
-14 -9 -14 -5 0 -11 -13 -14 -30 -4 -16 -12 -30 -18 -30 -8 0 -8 4 -2 13 6 6
10 20 10 30 0 21 -12 12 -12 -10 0 -9 -6 -18 -14 -21 -9 -3 -11 0 -6 8 6 9 4
11 -5 5 -10 -6 -7 -13 11 -27 21 -17 21 -19 4 -13 -16 5 -18 4 -8 -6 18 -18
16 -34 -1 -20 -11 9 -16 9 -22 0 -4 -7 -3 -9 4 -5 7 4 10 -1 9 -14 -1 -11 -8
-20 -18 -20 -19 0 -33 -26 -18 -35 5 -4 8 -1 7 6 -2 6 3 14 10 16 11 4 12 1 3
-16 -9 -15 -19 -20 -37 -17 -17 3 -22 1 -17 -7 4 -7 8 -16 9 -22 1 -5 5 -18 9
-27 4 -11 3 -18 -5 -18 -6 0 -9 4 -6 9 3 5 -1 14 -9 21 -10 9 -15 9 -15 1 0
-6 5 -11 12 -11 6 0 8 -3 5 -7 -4 -3 -1 -13 6 -21 8 -10 8 -13 1 -9 -14 8 -27
-20 -18 -35 4 -6 1 -14 -5 -18 -11 -6 -17 -21 -20 -51 -1 -3 -13 -5 -28 -2
l-28 3 25 -10 c23 -10 23 -12 8 -21 -10 -6 -18 -15 -18 -22 0 -7 4 -6 10 3 23
35 10 -2 -17 -49 -2 -2 -9 2 -17 8 -12 10 -14 9 -11 -6 1 -10 8 -17 14 -16 6
2 11 -4 11 -13 0 -8 -5 -12 -10 -9 -6 3 -10 -2 -11 -12 -1 -36 -10 -68 -24
-90 -9 -13 -12 -23 -8 -23 4 0 -3 -7 -15 -16 -12 -8 -22 -20 -22 -26 0 -7 6
-3 14 8 15 19 15 19 11 -1 -2 -11 -4 -24 -4 -28 -1 -5 -5 -6 -10 -2 -5 3 -13
0 -16 -6 -4 -5 -14 -8 -22 -5 -8 3 -11 1 -8 -5 4 -5 15 -7 26 -4 11 4 19 2 19
-4 0 -6 -4 -11 -10 -11 -5 0 -9 -3 -9 -7 3 -20 -2 -34 -10 -28 -5 3 -13 0 -17
-6 -4 -7 -3 -9 4 -5 6 3 13 2 17 -4 3 -5 1 -10 -5 -10 -7 0 -9 -7 -6 -16 4
-10 2 -14 -6 -11 -7 2 -12 11 -10 18 2 8 0 10 -4 6 -11 -11 -14 -38 -3 -31 12
7 25 -26 13 -35 -5 -3 -9 -10 -9 -16 -1 -5 -7 -30 -14 -55 -15 -49 -14 -49
-26 -102 -5 -25 -13 -38 -24 -39 -10 0 -11 -2 -3 -6 14 -6 16 -33 2 -33 -6 0
-8 -11 -4 -26 4 -17 3 -25 -3 -21 -6 4 -9 -5 -7 -23 2 -17 -1 -30 -7 -30 -6 0
-7 6 -3 13 4 6 3 9 -1 4 -11 -10 -14 -48 -3 -41 15 10 8 -6 -13 -27 -15 -15
-18 -24 -10 -32 15 -15 14 -30 -1 -21 -10 6 -10 5 -1 -7 9 -11 9 -25 1 -57 -6
-23 -14 -42 -18 -42 -5 0 -6 10 -3 23 3 12 3 20 0 17 -12 -11 -17 -70 -7 -70
6 0 8 4 5 10 -3 6 -1 10 4 10 15 0 14 -27 -1 -33 -10 -4 -10 -6 0 -6 7 -1 11
-5 8 -10 -3 -5 -8 -26 -12 -47 -3 -22 -8 -50 -11 -64 -2 -14 -5 -34 -4 -45 0
-18 -2 -18 -20 5 l-20 25 12 -25 c7 -14 17 -28 23 -32 7 -5 6 -8 -3 -8 -10 0
-11 -3 -2 -13 6 -8 8 -17 4 -21 -4 -3 -7 -22 -8 -42 0 -19 -7 -39 -15 -44 -8
-6 -10 -10 -4 -10 7 0 11 -13 10 -30 0 -16 -4 -30 -8 -30 -5 0 -8 -8 -8 -17 0
-16 2 -16 11 -3 9 12 10 11 4 -5 -4 -11 -8 -27 -9 -35 -1 -8 -7 -26 -14 -40
-12 -23 -12 -23 2 -6 14 18 15 18 13 -3 -1 -11 -7 -21 -14 -21 -7 0 -13 -5
-13 -11 0 -5 5 -7 10 -4 6 3 10 2 10 -4 0 -5 3 -16 6 -25 3 -9 1 -16 -6 -16
-6 0 -8 6 -4 13 5 9 3 9 -7 -1 -9 -8 -10 -15 -3 -20 14 -10 15 -53 1 -71 -9
-12 -9 -13 0 -7 8 4 13 2 13 -5 0 -6 -8 -9 -18 -7 -11 3 -19 0 -19 -7 0 -7 9
-10 21 -8 17 4 18 3 6 -6 -9 -7 -10 -11 -3 -11 7 0 12 -15 11 -40 0 -29 -5
-41 -19 -45 -22 -7 -25 -22 -4 -22 8 0 12 4 9 9 -3 4 -1 8 4 8 5 0 9 -16 10
-35 1 -20 -3 -33 -8 -30 -5 3 -7 13 -4 23 5 14 4 14 -4 3 -11 -15 -5 -41 9
-41 14 0 11 -28 -3 -33 -10 -4 -10 -6 0 -6 6 -1 12 -6 12 -12 0 -6 -7 -9 -15
-6 -8 4 -17 1 -21 -5 -4 -7 -3 -8 4 -4 7 4 12 2 12 -4 0 -6 4 -8 10 -5 5 3 10
-1 10 -10 0 -9 -4 -13 -10 -10 -5 3 -10 2 -10 -4 0 -5 5 -11 12 -13 20 -7 15
-67 -5 -74 -18 -6 -18 -7 2 -20 14 -10 20 -26 20 -52 0 -20 2 -57 4 -82 1 -25
-2 -51 -8 -59 -7 -11 -7 -13 3 -7 8 5 12 0 12 -18 0 -13 3 -31 6 -40 3 -9 1
-16 -6 -16 -6 0 -8 6 -4 12 4 7 3 10 -1 5 -5 -4 -9 -16 -10 -27 -1 -15 1 -17
12 -9 7 6 13 8 14 3 5 -48 5 -66 -4 -71 -6 -3 -5 -8 1 -12 5 -3 13 -25 16 -47
6 -32 3 -45 -9 -58 -9 -9 -13 -16 -8 -16 5 0 13 4 19 10 7 7 11 -2 12 -26 2
-26 -1 -34 -10 -29 -7 4 -4 -1 7 -10 15 -13 16 -19 7 -22 -10 -4 -8 -9 5 -20
17 -13 16 -14 -7 -8 -23 6 -24 5 -5 -6 11 -7 23 -17 27 -22 8 -13 4 -55 -7
-65 -4 -4 -5 -2 -1 5 3 6 2 14 -3 17 -5 4 -8 -2 -6 -11 1 -10 9 -17 17 -16 8
2 14 -6 15 -20 2 -29 7 -49 16 -64 5 -7 4 -13 -2 -13 -5 0 -13 5 -16 10 -8 13
-35 -6 -35 -24 0 -6 5 -3 11 7 10 18 12 18 31 -3 11 -11 17 -28 14 -36 -3 -7
-1 -14 4 -14 6 0 10 -7 10 -15 0 -9 -6 -12 -17 -9 -14 4 -14 2 2 -8 21 -14 28
-29 28 -65 1 -13 4 -23 8 -23 4 0 9 -9 12 -20 3 -13 1 -18 -6 -13 -7 4 -5 -1
3 -11 15 -19 20 -37 22 -73 0 -13 4 -23 8 -23 13 0 17 -47 7 -67 -10 -16 -9
-17 8 -3 17 14 17 13 10 -9 -5 -18 -4 -22 6 -15 10 6 10 3 -1 -11 -8 -10 -10
-16 -3 -12 7 5 14 -2 19 -15 4 -13 6 -24 5 -26 -1 -1 6 -18 14 -38 18 -43 18
-44 4 -44 -5 0 -7 5 -3 12 4 7 3 8 -4 4 -16 -9 -3 -36 14 -29 9 3 14 -2 14
-16 0 -11 9 -36 20 -56 20 -36 28 -63 10 -35 -6 9 -10 10 -10 3 0 -7 8 -17 18
-23 13 -9 13 -10 1 -7 -9 3 -22 1 -30 -4 -12 -8 -12 -10 1 -8 29 3 41 -1 35
-11 -3 -5 -3 -10 2 -10 4 0 14 -15 21 -33 7 -17 22 -50 32 -71 16 -32 18 -42
7 -54 -7 -10 -8 -13 -1 -9 7 4 17 0 24 -8 7 -8 9 -15 5 -15 -4 0 3 -17 15 -37
18 -32 28 -65 32 -110 1 -6 8 -9 16 -5 10 3 13 1 8 -6 -4 -7 -4 -12 1 -12 4 0
13 -10 19 -23 36 -75 90 -176 106 -199 13 -18 15 -26 6 -23 -9 4 -14 -3 -15
-17 0 -13 1 -17 4 -10 3 6 12 12 21 12 14 0 14 -2 3 -9 -11 -7 -9 -10 8 -16
20 -6 25 -16 22 -44 -2 -7 2 -10 8 -6 7 3 11 -2 11 -14 0 -12 5 -21 10 -21 6
0 10 -9 10 -21 0 -11 4 -18 8 -15 9 5 48 -54 44 -67 -1 -4 5 -10 13 -13 8 -4
15 -14 15 -23 0 -9 9 -23 19 -31 11 -7 17 -18 13 -24 -12 -20 -9 -44 5 -39 11
4 11 8 1 22 -9 11 -6 10 9 -3 13 -10 20 -22 18 -26 -3 -4 2 -10 10 -14 8 -3
12 -12 9 -21 -4 -10 0 -15 11 -15 9 0 13 -4 10 -10 -3 -5 -1 -10 5 -10 6 0 8
-4 5 -10 -3 -5 1 -10 9 -10 19 0 21 -17 3 -23 -6 -2 -4 -3 6 -1 10 1 21 -4 24
-13 3 -8 19 -29 34 -46 15 -17 26 -34 23 -39 -3 -4 2 -11 10 -14 9 -3 16 -10
16 -16 0 -5 -4 -7 -8 -4 -5 3 -9 -1 -9 -9 0 -11 4 -12 14 -3 7 6 15 9 16 7 1
-2 9 -16 17 -32 7 -15 20 -27 29 -28 12 0 11 -3 -4 -9 -20 -8 -19 -9 1 -9 12
-1 27 -8 35 -17 11 -13 10 -19 -1 -37 -12 -19 -11 -20 2 -10 22 18 72 -38 62
-70 -6 -22 -6 -22 11 -2 9 11 14 14 10 7 -4 -7 0 -12 9 -12 9 0 16 -4 16 -9 0
-4 12 -21 28 -36 15 -16 21 -25 15 -21 -7 4 -13 2 -13 -3 0 -6 10 -11 22 -11
12 0 19 -2 16 -5 -3 -3 17 -27 43 -53 27 -26 49 -53 49 -61 0 -8 3 -12 6 -8 7
7 54 -38 54 -52 0 -5 5 -13 12 -17 7 -5 8 -3 3 7 -8 12 -6 12 8 0 9 -7 17 -25
18 -40 0 -23 1 -24 8 -6 7 18 10 17 30 -15 11 -19 21 -31 21 -26 0 4 17 -8 37
-28 21 -20 42 -36 48 -36 5 0 3 -5 -5 -10 -12 -8 -10 -10 8 -10 13 0 21 -4 18
-9 -3 -5 4 -11 15 -14 14 -4 20 -11 16 -20 -4 -10 0 -14 11 -12 9 1 32 -13 49
-31 18 -19 37 -34 41 -34 5 0 19 -11 32 -25 20 -21 21 -27 9 -42 -13 -17 -13
-17 7 0 20 16 34 14 34 -5 0 -5 -5 -6 -12 -2 -7 5 -8 3 -3 -5 5 -9 11 -9 17
-3 9 9 30 -3 74 -46 7 -6 15 -12 18 -12 3 0 15 -8 25 -18 11 -9 40 -32 65 -51
25 -18 43 -38 40 -43 -3 -5 0 -9 7 -7 27 3 40 -1 34 -11 -3 -6 2 -10 12 -10
25 0 43 -19 36 -39 -4 -14 -3 -14 6 -1 10 13 13 13 22 -3 6 -9 14 -15 20 -12
16 10 10 -7 -8 -20 -13 -9 -13 -14 -3 -20 8 -5 11 -4 7 1 -3 6 4 16 15 23 18
11 20 11 15 -2 -4 -10 0 -14 11 -12 9 1 31 -8 49 -21 17 -13 36 -24 41 -24 16
0 34 -27 22 -35 -5 -3 -10 -1 -10 6 0 7 -3 10 -6 6 -12 -12 7 -28 21 -17 16
13 65 -7 65 -27 0 -8 4 -12 10 -8 10 6 48 -13 68 -35 12 -13 13 -13 7 0 -4 9
-1 8 8 -3 8 -10 25 -20 37 -22 12 -2 45 -19 73 -37 28 -18 54 -33 57 -33 14
-1 110 -51 110 -57 0 -5 9 -8 20 -8 11 0 20 -4 20 -10 0 -5 11 -10 24 -10 13
0 29 -7 36 -15 7 -9 15 -13 18 -11 2 3 22 -4 43 -14 21 -11 45 -20 54 -20 14
0 20 -12 16 -34 -1 -5 4 -4 12 3 12 9 22 9 48 -3 19 -8 54 -22 79 -32 25 -10
48 -23 52 -29 4 -5 8 -7 8 -3 0 7 76 -18 89 -28 2 -2 -1 -10 -7 -17 -9 -10 -8
-14 3 -14 8 0 12 4 9 9 -12 18 29 21 44 2 10 -13 16 -15 19 -6 3 6 9 10 14 6
5 -3 5 -13 -1 -24 -7 -13 -7 -21 0 -25 6 -4 10 -3 9 2 -5 28 2 34 34 28 17 -4
37 -12 42 -18 7 -7 6 -8 -2 -3 -7 4 -13 2 -13 -3 0 -14 13 -14 26 -1 7 7 22 6
46 -4 19 -9 38 -12 42 -9 6 6 10 -12 7 -30 -1 -5 3 -6 9 -2 6 3 8 10 5 15 -3
4 4 6 15 3 11 -3 20 -9 20 -14 0 -5 5 -9 11 -9 5 0 7 5 4 11 -4 5 8 4 27 -4
38 -16 42 -17 64 -17 9 0 12 -5 8 -12 -5 -10 -4 -10 5 -2 18 17 51 6 44 -14
-4 -12 -1 -11 10 3 l16 20 1 -20 c0 -17 2 -17 10 -5 8 12 10 12 10 -5 0 -14 3
-16 9 -7 5 9 17 11 37 6 16 -5 35 -7 42 -6 7 2 15 -4 18 -13 3 -8 10 -15 16
-15 5 0 6 5 2 11 -4 7 -1 10 7 7 8 -3 13 -14 11 -24 -3 -18 -3 -18 12 1 14 19
17 19 43 5 18 -11 28 -23 27 -38 -1 -12 3 -19 7 -16 5 3 7 10 4 15 -6 8 9 13
28 10 5 -1 6 3 2 9 -3 6 3 10 15 10 17 0 21 -4 16 -17 -5 -15 -4 -15 9 1 8 11
15 15 15 8 0 -6 6 -9 14 -6 8 3 16 -2 19 -13 4 -16 5 -16 6 0 0 9 6 17 12 17
6 0 8 -7 5 -16 -5 -13 -3 -14 6 -6 15 12 107 5 126 -10 8 -7 12 -7 12 1 0 9 5
9 20 1 11 -6 20 -8 20 -4 0 3 8 0 17 -7 11 -10 14 -10 9 -1 -9 14 3 16 24 2
12 -8 12 -10 1 -10 -8 0 -11 -3 -7 -7 4 -5 13 0 21 10 11 15 13 15 18 3 4 -9
-1 -20 -11 -25 -9 -6 -12 -11 -6 -11 15 0 36 25 28 33 -4 3 10 5 30 4 20 -1
36 -5 36 -9 0 -4 10 -12 23 -18 20 -10 20 -10 4 3 -15 13 -16 15 -2 21 8 3 15
1 15 -4 0 -5 16 -6 37 -3 25 4 34 3 29 -5 -4 -6 -13 -9 -20 -6 -19 7 -27 -9
-14 -26 8 -12 9 -11 4 4 -5 13 -2 17 9 13 8 -4 20 0 28 7 8 8 28 12 48 10 19
-1 55 -4 81 -5 26 -1 45 -5 43 -9 -2 -4 2 -7 10 -7 8 0 12 3 10 7 -2 3 22 6
53 7 41 0 60 -4 69 -16 11 -14 12 -14 8 0 -4 10 0 16 10 16 8 0 15 -4 15 -9 0
-4 5 -8 11 -8 5 0 7 4 4 10 -3 6 25 9 75 7 44 -1 80 0 80 4 0 3 18 5 40 6 24
0 40 -4 40 -11 0 -7 3 -7 8 -1 13 18 43 17 57 -2 13 -17 14 -16 9 7 -4 18 -3
21 4 11 8 -10 11 -11 17 -1 6 10 11 9 22 -5 12 -17 13 -17 13 -2 0 19 15 23
25 7 3 -6 12 -10 18 -9 7 0 5 3 -3 7 -8 3 19 11 60 17 41 6 80 7 87 2 6 -4 14
-3 18 3 5 8 11 5 20 -7 13 -17 14 -16 9 7 -2 14 -2 19 2 12 3 -6 10 -9 15 -6
20 12 69 23 64 13 -4 -5 1 -9 10 -9 10 0 13 5 9 13 -5 7 0 6 11 -3 11 -9 16
-10 11 -2 -5 8 2 12 23 12 17 0 33 -1 34 -2 2 -2 11 3 20 11 17 14 23 3 10
-15 -5 -5 0 -1 9 9 10 10 22 16 28 12 8 -5 6 -11 -5 -19 -15 -10 -14 -12 3
-12 15 0 19 6 16 21 -3 16 1 21 19 20 12 0 28 -4 36 -9 9 -6 12 -5 8 1 -8 13
47 34 68 27 8 -4 15 -2 15 4 0 6 11 9 25 7 14 -1 25 1 25 5 0 4 7 7 15 7 10 0
14 -6 10 -16 -5 -15 -4 -15 7 0 7 9 22 20 33 26 22 12 103 28 122 25 6 -2 14
2 18 8 3 5 11 10 17 10 6 0 5 -7 -3 -17 -8 -11 -3 -9 11 4 14 12 39 24 55 28
17 4 40 11 53 18 18 9 25 7 37 -9 13 -18 14 -18 8 4 -4 18 -2 21 12 15 12 -4
16 -3 11 5 -4 7 3 9 21 6 15 -3 24 -2 20 2 -4 4 23 17 60 30 52 16 73 19 88
11 18 -9 18 -8 7 6 -11 13 -10 16 5 19 10 3 27 -2 38 -11 14 -11 16 -11 8 -1
-7 8 -13 17 -13 21 0 12 37 17 56 6 16 -8 17 -7 6 4 -10 11 2 19 65 44 51 20
81 27 85 20 5 -6 8 -3 8 6 0 19 37 32 44 15 2 -6 5 -4 5 5 1 15 43 35 64 31 4
-1 7 2 7 7 0 8 26 21 50 26 3 1 20 10 39 22 18 12 41 19 49 15 11 -4 13 -2 7
8 -6 10 -4 12 8 7 9 -3 18 0 21 8 3 9 12 12 23 8 10 -3 15 -2 11 2 -5 5 6 17
23 27 24 15 34 16 45 7 12 -9 13 -9 9 4 -4 8 -1 18 6 23 7 4 10 3 6 -3 -3 -5
0 -10 7 -10 8 0 12 6 9 14 -3 8 2 13 16 13 12 0 21 5 21 12 0 6 3 8 7 5 3 -4
12 1 20 11 14 16 14 16 9 -1 -8 -26 1 -21 18 11 8 15 15 21 16 13 0 -11 4 -9
15 5 8 10 15 15 15 11 0 -5 7 -1 17 8 25 26 91 65 108 65 9 0 13 4 10 10 -3 5
-2 10 3 10 5 0 30 14 56 31 31 21 54 29 69 26 21 -6 21 -6 3 8 -16 12 -16 15
-4 15 8 0 23 9 33 20 20 22 36 26 33 9 -2 -6 4 -14 12 -16 9 -3 11 -1 5 4 -18
14 -15 32 5 43 12 6 20 7 20 1 0 -5 -6 -11 -12 -14 -7 -3 -4 -5 8 -4 16 1 20
6 16 26 -5 23 -3 24 11 13 15 -13 77 -29 66 -17 -4 3 -17 8 -29 10 -36 7 -36
14 -5 40 29 24 51 33 41 17 -2 -4 0 -14 6 -22 8 -12 9 -11 4 4 -5 14 -2 17 11
12 15 -5 15 -4 -1 9 -11 8 -17 18 -13 21 4 4 15 1 24 -7 16 -13 17 -12 5 3
-11 14 -11 18 5 26 12 7 25 7 37 0 15 -8 17 -8 11 2 -6 10 -4 12 9 7 11 -4 15
-3 11 4 -4 6 -13 8 -21 5 -31 -12 -11 15 39 50 28 20 57 42 62 48 25 27 105
86 116 86 7 0 10 3 7 6 -4 3 1 13 10 23 15 15 18 15 29 1 10 -13 11 -11 6 8
-3 14 -1 22 8 22 7 0 9 3 6 7 -10 9 54 54 66 46 6 -4 7 -1 2 7 -11 18 44 63
60 50 9 -7 16 -6 24 4 9 11 9 16 0 22 -7 4 -9 3 -5 -4 3 -6 2 -13 -3 -16 -23
-15 -21 19 3 42 25 26 26 26 41 7 16 -19 16 -19 6 2 -14 29 -14 33 5 33 8 0
12 5 9 10 -10 17 7 11 22 -7 13 -16 13 -16 3 5 -9 19 -8 27 9 45 11 12 30 34
43 49 17 21 27 26 38 18 13 -8 12 -11 -5 -25 -20 -16 -19 -16 3 -5 25 12 27
21 10 38 -17 17 -1 27 19 11 10 -7 15 -10 11 -5 -4 5 3 17 15 28 l22 19 -27
-17 c-16 -9 -28 -13 -28 -9 0 13 64 74 72 69 5 -4 8 2 6 11 -2 10 3 20 11 23
10 3 11 0 5 -9 -7 -12 -5 -12 9 0 18 15 23 26 7 16 -5 -3 -10 -1 -10 4 0 6 6
11 14 11 8 0 17 7 20 16 6 15 4 15 -11 3 -10 -8 -2 5 17 28 19 24 39 43 43 43
5 0 5 5 1 12 -4 7 -3 8 4 4 7 -4 12 -2 12 5 0 7 7 19 15 28 8 9 23 26 34 38
10 12 16 25 13 29 -4 4 -2 4 4 1 7 -4 14 2 17 15 5 19 8 20 24 7 17 -13 17
-13 3 5 -12 15 -12 20 -2 23 6 3 9 10 5 16 -4 6 0 8 10 4 10 -4 14 -2 11 7 -3
7 7 25 21 40 14 15 22 32 19 38 -5 8 -1 9 10 5 13 -5 17 -3 13 7 -3 8 -3 16 1
18 9 4 77 108 85 131 4 9 12 17 19 17 10 0 10 -2 0 -9 -11 -7 -10 -9 3 -14 9
-4 13 -3 10 3 -3 6 -1 10 6 10 7 0 4 7 -7 15 -17 13 -17 14 -2 15 12 0 15 5
11 17 -4 11 -3 14 5 9 8 -5 12 0 12 13 0 10 3 21 8 23 4 2 16 21 27 43 11 22
23 42 26 45 4 3 18 29 33 58 15 29 31 50 37 46 6 -3 10 0 8 7 -3 29 2 46 21
67 12 12 17 22 13 22 -4 0 2 7 13 16 10 8 13 13 6 9 -10 -5 -10 -1 -1 19 10
22 15 24 27 13 13 -10 14 -9 5 8 -9 15 -7 26 5 50 9 16 16 33 17 37 0 4 9 14
20 23 11 9 13 13 5 9 -12 -6 -13 -5 -3 7 6 8 11 16 11 19 -2 15 15 49 22 45 5
-3 11 -1 15 5 3 5 1 10 -4 10 -6 0 -11 5 -11 11 0 6 7 8 16 5 14 -5 15 -4 4 9
-10 12 -9 15 6 15 16 0 17 2 4 10 -11 7 -11 10 -2 10 8 0 10 5 6 12 -5 8 -2 9
10 5 13 -5 15 -3 8 10 -12 20 -3 55 11 46 6 -4 7 -1 3 6 -5 7 0 19 10 27 11 9
13 12 5 8 -10 -5 -12 -3 -7 5 5 7 15 10 25 7 14 -5 14 -4 -1 7 -10 8 -15 17
-11 20 3 4 12 2 20 -4 8 -7 13 -8 13 -1 0 5 -8 13 -17 16 -10 4 -13 10 -8 14
6 4 12 16 13 27 2 11 9 26 15 34 7 7 12 19 13 25 0 6 2 17 2 24 1 8 7 10 15 6
9 -6 9 -5 0 7 -8 10 -9 19 -3 25 5 5 11 18 13 29 2 11 8 30 15 41 6 12 8 25 4
30 -4 5 1 2 11 -5 16 -13 17 -12 8 11 -5 14 -8 28 -6 30 3 2 6 13 8 24 2 10
10 33 17 49 8 17 15 41 16 55 2 14 8 26 14 28 5 2 10 8 10 13 0 6 -5 7 -11 3
-8 -4 -8 0 0 15 7 11 9 21 5 21 -3 0 -1 7 6 15 7 9 19 14 27 11 8 -3 11 -1 8
4 -3 6 -13 10 -20 10 -9 0 -12 6 -9 15 4 8 10 15 16 15 5 0 6 -5 2 -12 -4 -7
-3 -8 5 -4 6 4 8 12 5 18 -5 8 -1 9 10 5 11 -4 15 -3 11 4 -4 6 -13 8 -21 5
-14 -5 -20 15 -7 27 7 7 14 45 16 85 1 21 2 22 13 8 11 -15 12 -15 18 -1 3 9
2 14 -3 11 -10 -6 -24 22 -17 33 3 4 7 20 10 36 3 16 11 32 18 37 10 6 10 8 1
8 -7 0 -13 5 -13 10 0 6 7 10 15 10 8 0 15 5 15 11 0 5 -4 8 -10 4 -5 -3 -8 7
-7 24 2 24 5 27 16 18 12 -10 13 -9 5 8 -11 21 -10 38 0 90 3 17 8 55 12 85 3
30 10 57 15 58 5 2 9 8 9 13 0 6 -4 8 -8 5 -4 -2 -8 4 -8 15 0 10 3 19 6 19 3
0 6 21 8 48 1 26 4 72 5 102 2 31 6 60 8 65 3 6 5 34 4 63 -1 48 1 52 20 47
16 -5 15 -3 -5 9 l-25 15 25 2 c15 1 19 3 9 6 -10 2 -19 13 -22 24 -6 23 -3
24 17 3 9 -8 16 -11 16 -5 0 5 -6 16 -13 23 -20 20 -19 76 1 81 15 4 15 5 0 6
-13 1 -17 8 -16 26 2 20 7 24 23 20 20 -6 20 -6 0 7 -19 12 -32 64 -14 52 5
-3 7 -9 4 -14 -9 -14 19 -30 35 -19 12 8 11 9 -4 7 -12 -2 -20 4 -22 16 -1 10
-6 22 -11 25 -5 3 -9 25 -9 49 -1 38 1 42 20 37 20 -5 19 -4 -1 6 -13 7 -23
19 -23 27 0 12 3 12 16 1 16 -13 51 -23 39 -11 -4 4 -10 7 -14 7 -31 0 -56 79
-40 123 6 15 5 21 -1 17 -14 -9 -12 8 2 24 7 8 8 11 3 8 -6 -3 -12 3 -13 14
-1 10 -2 25 -3 32 -1 6 2 21 7 31 4 11 4 17 -2 14 -5 -4 -10 6 -11 20 -1 24 0
25 12 9 15 -21 22 -22 22 -2 0 8 -2 13 -5 10 -8 -8 -28 20 -31 45 -7 61 -5 95
4 93 6 -1 11 7 11 17 0 11 -2 17 -4 15 -2 -2 -10 2 -17 8 -10 9 -10 15 -1 26
8 11 8 13 -1 8 -6 -4 -15 -2 -19 4 -5 8 1 10 20 7 33 -7 34 0 0 12 -24 10 -29
38 -5 32 21 -4 11 16 -11 21 -19 5 -20 8 -7 23 9 12 10 15 2 10 -8 -4 -13 -1
-13 9 0 12 4 13 18 6 14 -7 19 -6 19 4 0 7 -6 11 -13 8 -14 -5 -26 11 -30 41
-2 12 -6 35 -9 51 -11 51 -13 75 -4 75 4 0 10 -6 12 -12 4 -10 6 -10 6 -1 1 7
-8 17 -18 23 -11 5 -20 18 -20 28 -1 41 -7 67 -16 74 -6 5 -5 8 3 8 6 0 12 5
12 11 0 5 -5 7 -11 3 -7 -4 -10 -1 -7 7 3 8 14 12 24 11 10 -2 17 -2 14 0 -45
34 -44 34 -35 18 6 -12 5 -13 -6 -2 -7 7 -14 23 -14 35 -1 13 -5 29 -10 37 -6
9 -4 11 6 5 11 -6 12 -5 2 5 -10 11 -9 16 5 27 16 12 16 13 0 7 -13 -4 -20 1
-27 17 -12 35 -3 53 18 37 14 -11 14 -11 3 3 -7 9 -10 25 -6 35 5 16 4 16 -5
4 -7 -10 -11 -11 -11 -2 0 6 -6 12 -14 12 -9 0 -13 7 -11 20 2 11 0 20 -6 20
-5 0 -9 5 -9 11 0 5 5 7 11 3 7 -4 10 -1 7 7 -3 8 -11 13 -17 12 -14 -4 -15
14 -1 22 5 3 15 16 21 28 10 21 10 21 -8 -1 l-19 -23 -18 40 c-19 44 -14 70 9
51 10 -8 15 -8 21 1 4 7 3 9 -4 5 -6 -3 -13 -2 -16 3 -4 5 -2 12 4 16 5 3 10
12 10 18 0 7 -5 4 -11 -7 -9 -15 -13 -16 -21 -5 -8 11 -9 10 -4 -3 3 -10 2
-18 -2 -18 -11 0 -43 110 -36 122 4 6 2 8 -4 4 -9 -6 -29 47 -24 67 1 4 -3 7
-10 7 -6 0 -8 3 -5 7 4 3 3 11 -2 17 -14 18 -22 48 -11 41 6 -3 10 -1 10 4 0
6 -6 11 -14 11 -8 0 -17 7 -20 16 -5 14 -4 15 9 4 13 -11 14 -10 9 4 -3 9 -12
16 -20 16 -8 0 -11 6 -7 15 5 14 7 14 22 1 12 -11 21 -12 31 -5 13 9 12 10 -2
6 -21 -7 -34 11 -33 45 0 15 -2 25 -5 22 -3 -3 -5 -15 -5 -27 0 -11 -6 -22
-13 -24 -8 -3 -10 1 -5 13 5 13 3 15 -7 9 -8 -5 -11 -4 -7 2 4 6 0 16 -8 23
-8 7 -12 17 -9 22 4 6 0 15 -7 20 -10 7 -9 8 6 4 l20 -6 -20 16 c-11 8 -18 23
-17 32 2 9 0 14 -4 9 -6 -6 -30 34 -34 58 0 2 -14 29 -30 59 -27 52 -28 55 -9
61 22 7 25 22 4 22 -8 0 -12 -4 -9 -9 3 -4 -3 -8 -12 -8 -10 0 -15 3 -11 6 3
4 0 13 -8 21 -13 12 -13 18 1 41 15 25 15 25 0 8 -9 -11 -17 -18 -19 -15 -1 2
-9 13 -17 23 -8 11 -10 17 -5 14 6 -3 17 1 25 10 13 14 12 15 -4 9 -20 -8 -46
8 -46 27 0 6 7 3 14 -7 12 -15 14 -15 19 -2 4 8 3 14 -1 13 -17 -5 -52 24 -52
43 0 11 4 17 10 14 6 -3 7 1 4 10 -6 14 -8 14 -20 -2 -12 -16 -15 -13 -14 12
0 3 -9 15 -20 27 -20 22 -24 32 -21 57 2 7 -2 10 -8 6 -6 -3 -11 -1 -11 4 0 6
-10 22 -22 37 -13 14 -23 29 -23 32 0 4 -10 21 -22 38 -12 17 -20 34 -16 37 3
4 -2 10 -11 13 -14 5 -15 9 -4 15 10 7 9 9 -4 9 -10 0 -18 4 -18 9 0 5 -12 24
-27 42 -16 18 -21 30 -13 25 9 -4 7 -1 -2 7 -10 8 -18 17 -18 21 0 3 -9 15
-20 26 -11 11 -20 28 -20 37 0 15 2 14 14 -2 8 -11 12 -24 9 -30 -4 -5 -3 -7
2 -3 4 4 13 4 19 -2 7 -5 17 -5 26 2 13 8 12 9 -2 5 -19 -6 -42 15 -30 28 4 5
2 5 -4 2 -7 -4 -15 0 -18 9 -5 13 -9 14 -21 4 -11 -9 -15 -10 -15 -1 0 7 -7
19 -15 28 -10 10 -13 23 -9 36 6 18 5 20 -8 10 -16 -13 -38 0 -38 22 0 6 -11
22 -25 35 -14 13 -25 27 -25 32 0 4 -14 21 -31 38 -18 16 -27 30 -20 30 6 0
14 -7 17 -15 4 -8 11 -12 17 -8 6 4 7 1 2 -7 -6 -9 -4 -11 5 -5 10 6 10 11 -3
20 -9 7 -15 14 -12 16 2 3 -5 6 -17 6 -28 3 -31 8 -18 32 6 12 16 18 22 15 7
-5 8 -2 3 6 -6 10 -12 9 -25 -7 -12 -15 -21 -18 -31 -12 -10 6 -10 9 -1 9 6 0
12 5 12 11 0 5 -4 8 -9 4 -6 -3 -25 11 -43 31 -18 20 -45 48 -60 63 -16 14
-28 31 -28 39 0 7 -4 11 -9 7 -6 -3 -15 5 -22 17 -7 12 -21 30 -33 40 -12 9
-16 18 -11 18 6 0 -1 6 -15 13 -14 8 -24 19 -23 25 2 7 -4 12 -12 12 -8 0 -15
7 -15 16 0 8 -4 13 -9 10 -11 -7 -43 28 -34 37 3 4 2 7 -4 7 -13 0 -53 35 -53
46 0 4 5 3 12 -4 16 -16 25 -15 25 2 0 8 -6 12 -15 8 -12 -4 -14 -1 -9 14 7
18 7 18 -7 0 -14 -17 -16 -17 -31 -3 -8 9 -11 18 -6 21 5 4 11 1 13 -6 3 -9 6
-9 12 0 4 7 2 12 -4 12 -6 0 -8 6 -4 13 6 10 4 10 -7 0 -21 -21 -31 -16 -97
47 -34 33 -67 60 -73 60 -6 0 -7 5 -4 10 5 8 11 7 21 -1 8 -6 17 -9 21 -5 3 3
1 6 -6 6 -7 0 -9 5 -5 12 4 6 3 8 -4 4 -5 -3 -13 0 -15 6 -4 10 -6 10 -6 1 -1
-20 -22 -15 -48 9 l-23 22 22 25 c13 14 16 20 7 13 -13 -10 -19 -9 -29 3 -12
14 -7 20 15 15 6 -1 7 2 2 6 -4 4 -16 8 -27 9 -20 2 -18 -7 8 -37 14 -16 13
-18 -7 -18 -12 0 -19 4 -16 10 3 6 0 10 -8 10 -8 0 -29 13 -46 29 -18 17 -33
29 -34 29 -1 -1 -12 5 -24 12 -16 10 -19 18 -12 26 8 9 5 11 -10 7 -13 -3 -21
-1 -21 6 0 7 -5 9 -12 5 -7 -4 -8 -3 -4 4 4 7 1 12 -6 12 -8 0 -23 7 -34 16
-10 8 -12 12 -4 8 13 -7 13 -6 0 10 -9 12 -16 14 -18 7 -3 -8 -10 -5 -20 7
-10 10 -31 27 -49 37 -20 12 -29 23 -24 29 5 6 4 20 0 31 -9 19 -9 19 -5 -2 5
-27 -18 -37 -36 -15 -8 10 -8 13 -1 9 6 -4 14 -3 17 1 3 5 -7 9 -22 8 -17 0
-26 4 -24 12 1 7 -3 12 -10 11 -26 -3 -35 2 -45 24 -8 16 -8 29 -1 42 7 12 7
16 0 11 -6 -3 -13 0 -16 6 -3 7 -3 3 0 -9 4 -19 2 -22 -13 -17 -15 6 -15 5 2
-9 11 -8 17 -19 12 -23 -4 -4 -7 -2 -7 4 0 7 -5 12 -10 12 -15 0 -129 74 -130
84 0 5 6 3 14 -3 10 -9 17 -7 27 6 13 16 12 17 -3 5 -13 -10 -17 -10 -20 0 -4
11 -8 11 -20 0 -13 -11 -19 -8 -38 15 -12 15 -18 22 -15 15 9 -16 -56 14 -67
32 -4 6 -8 7 -8 2 0 -5 -8 -2 -17 7 -10 8 -22 16 -28 17 -5 1 -9 6 -7 11 1 6
-3 9 -10 8 -27 -3 -49 1 -44 10 3 4 -12 13 -33 20 -21 6 -45 19 -52 28 -13 16
-11 16 16 -1 l30 -18 -22 22 c-19 21 -24 22 -39 9 -16 -13 -17 -12 -11 5 6 15
5 17 -6 8 -14 -12 -27 -6 -27 12 0 6 5 4 11 -4 8 -12 10 -12 7 -1 -2 8 -14 15
-26 16 -18 1 -20 -1 -9 -13 8 -11 4 -10 -15 2 -25 16 -33 33 -29 59 0 4 -2 6
-6 5 -5 0 -16 2 -26 7 -11 4 -23 3 -29 -3 -8 -8 -5 -9 9 -6 20 6 51 -21 39
-33 -3 -4 -13 2 -22 13 -8 10 -13 13 -9 7 4 -8 -9 -6 -36 5 -30 13 -43 25 -44
40 -1 12 -5 25 -10 29 -4 5 -4 -2 -1 -14 4 -12 2 -24 -5 -29 -7 -4 -9 -3 -6 3
4 6 -2 18 -12 27 -13 12 -21 14 -26 6 -3 -6 -1 -9 6 -8 6 2 14 -4 17 -12 4
-11 -1 -11 -22 3 -14 10 -31 15 -36 12 -6 -3 -10 -1 -10 5 0 6 -4 9 -8 6 -5
-3 -7 5 -6 17 1 12 3 26 3 30 1 5 6 5 13 1 7 -5 8 -3 3 6 -6 10 -11 10 -20 -3
-7 -9 -16 -13 -21 -9 -4 4 -3 0 4 -10 10 -12 10 -18 1 -24 -7 -4 -9 -3 -6 3 4
6 -4 11 -19 11 -27 0 -41 8 -31 18 4 4 13 1 22 -6 8 -7 15 -8 15 -3 0 16 -48
34 -56 21 -5 -7 -3 -8 6 -3 9 6 11 4 5 -4 -5 -9 -11 -9 -17 -3 -6 6 -18 8 -27
5 -9 -3 -1 4 17 16 17 11 32 23 32 26 0 4 -10 -1 -22 -9 -25 -18 -78 -22 -78
-6 0 6 6 10 14 10 20 0 29 17 15 26 -8 5 -9 3 -4 -6 6 -10 4 -12 -8 -7 -9 3
-18 0 -21 -8 -3 -8 -12 -12 -21 -9 -8 3 -12 11 -8 18 4 6 -2 4 -12 -4 -17 -14
-18 -13 -12 2 8 23 -8 32 -33 18 -15 -8 -25 -8 -34 -1 -7 6 -17 7 -21 3 -5 -4
-5 -1 0 7 6 10 2 12 -13 7 -11 -4 -23 -2 -26 3 -4 6 -14 7 -24 4 -16 -6 -16
-5 1 14 24 28 21 37 -4 12 -11 -11 -23 -18 -27 -15 -3 4 3 13 14 22 16 13 14
12 -14 -1 -24 -12 -37 -13 -46 -6 -7 6 -17 7 -21 3 -5 -4 -5 -1 -1 6 4 6 3 12
-3 12 -5 0 -11 6 -14 13 -2 6 -3 4 -1 -6 1 -10 -3 -16 -9 -14 -7 2 -11 13 -10
24 1 11 -4 20 -11 20 -8 0 -11 -8 -8 -19 2 -10 -1 -18 -7 -18 -6 0 -11 6 -11
14 0 18 -27 29 -36 14 -4 -6 -3 -8 4 -4 6 3 13 2 17 -3 9 -16 -36 -3 -58 16
-11 10 -17 12 -13 5 6 -10 1 -12 -19 -9 -34 4 -51 29 -27 39 14 7 14 7 -3 5
-14 -2 -19 -9 -17 -22 2 -12 0 -16 -5 -9 -4 6 -19 10 -31 9 -13 -1 -26 4 -29
12 -3 7 -9 13 -15 13 -5 0 -6 -4 -3 -10 3 -6 -1 -7 -9 -4 -9 3 -13 11 -9 18 4
6 -1 5 -11 -3 -12 -10 -20 -11 -28 -3 -6 6 -17 8 -24 5 -8 -3 -14 0 -14 7 0 6
5 8 11 4 8 -5 8 -1 0 14 -6 12 -17 24 -24 28 -9 6 -9 4 1 -8 14 -18 5 -51 -12
-41 -6 4 -20 9 -31 10 -11 1 -33 5 -50 8 -36 6 -95 15 -112 17 -7 1 -13 6 -13
11 0 5 -7 3 -16 -4 -15 -12 -16 -11 -10 8 6 18 4 21 -13 18 -14 -3 -21 2 -22
13 0 14 -2 14 -7 2 -4 -8 -14 -17 -22 -18 -41 -10 -50 -10 -56 -1 -4 6 -11 6
-20 -2 -8 -7 -14 -7 -14 -1 0 14 25 22 54 16 20 -3 26 0 26 13 0 11 -3 14 -8
7 -4 -6 -16 -10 -27 -8 -11 2 -30 -3 -42 -11 -12 -8 -28 -13 -35 -11 -42 13
-69 16 -63 6 4 -7 -2 -7 -18 -1 -14 6 -28 7 -33 3 -4 -4 -4 -1 0 6 4 6 3 12
-3 12 -5 0 -12 -6 -14 -12 -4 -10 -6 -10 -6 0 -1 6 -6 12 -12 12 -5 0 -7 -6
-3 -12 6 -10 4 -10 -8 0 -13 10 -17 10 -21 0 -6 -14 -11 15 -8 42 2 13 1 13
-8 0 -6 -8 -11 -11 -11 -6 0 5 -7 3 -15 -4 -21 -17 -31 -5 -14 17 12 17 12 17
-6 1 -15 -14 -16 -21 -7 -30 8 -8 15 -8 25 1 12 9 16 8 20 -2 4 -11 -7 -14
-54 -13 -62 2 -83 11 -59 26 13 8 13 11 1 22 -8 7 -11 8 -8 2 4 -7 0 -17 -8
-24 -8 -7 -12 -16 -10 -20 3 -5 -7 -5 -22 -1 -16 4 -49 6 -75 5 -27 -1 -48 2
-48 8 0 5 5 6 10 3 6 -3 10 -1 10 4 0 10 -11 14 -27 9 -5 -1 -7 -7 -6 -13 4
-16 -149 -14 -165 2 -7 7 -18 13 -25 13 -6 0 -2 -7 9 -15 18 -14 18 -15 -11
-12 -21 3 -32 11 -37 28 -7 22 -7 22 -4 -4z m-244 -35 c0 -5 -7 -9 -15 -9 -8
0 -15 4 -15 9 0 4 7 8 15 8 8 0 15 -4 15 -8z m1150 -33 c0 -4 -13 -6 -29 -5
-16 0 -28 3 -26 6 5 8 55 7 55 -1z m915 -219 c-3 -5 -11 -10 -16 -10 -6 0 -7
5 -4 10 3 6 11 10 16 10 6 0 7 -4 4 -10z m-4875 -910 c0 -5 -5 -10 -11 -10 -5
0 -7 5 -4 10 3 6 8 10 11 10 2 0 4 -4 4 -10z m-1307 -1726 c-6 -16 -16 -11
-19 11 -1 8 4 11 11 8 8 -2 11 -11 8 -19z m9367 -755 c0 -5 -4 -9 -10 -9 -5 0
-10 7 -10 16 0 8 5 12 10 9 6 -3 10 -10 10 -16z m-9720 -314 c0 -8 -4 -15 -10
-15 -5 0 -7 7 -4 15 4 8 8 15 10 15 2 0 4 -7 4 -15z m9860 -406 c0 -5 -4 -9
-8 -9 -5 0 -9 7 -9 15 0 8 4 12 9 9 4 -3 8 -9 8 -15z m-9482 -2734 c-3 -3 -9
2 -12 12 -6 14 -5 15 5 6 7 -7 10 -15 7 -18z m3632 -2765 c0 -5 -4 -10 -9 -10
-6 0 -13 5 -16 10 -3 6 1 10 9 10 9 0 16 -4 16 -10z"/>
<path d="M5061 10123 c12 -14 12 -16 -1 -11 -8 3 -24 9 -35 13 -20 6 -20 6 -1
-6 11 -7 31 -13 44 -15 23 -2 23 -2 6 17 -21 23 -32 25 -13 2z"/>
<path d="M5095 10131 c-3 -6 4 -15 15 -21 13 -7 20 -7 20 0 0 5 -7 10 -16 10
-8 0 -12 5 -9 10 3 6 4 10 1 10 -3 0 -7 -4 -11 -9z"/>
<path d="M5153 10125 c-3 -9 -3 -18 -1 -21 3 -3 8 4 11 16 6 23 -1 27 -10 5z"/>
<path d="M5593 10133 c4 -3 -1 -12 -11 -20 -15 -13 -15 -13 6 -3 19 9 23 30 5
30 -4 0 -3 -3 0 -7z"/>
<path d="M4520 10120 c-12 -7 -10 -9 7 -7 12 0 19 5 17 9 -6 10 -6 10 -24 -2z"/>
<path d="M4707 10114 c3 -7 9 -14 14 -14 14 0 10 17 -5 23 -10 4 -13 1 -9 -9z"/>
<path d="M4765 10119 c-4 -6 -5 -12 -2 -15 2 -3 7 2 10 11 7 17 1 20 -8 4z"/>
<path d="M4797 10119 c7 -7 15 -10 18 -7 3 3 -2 9 -12 12 -14 6 -15 5 -6 -5z"/>
<path d="M5230 10115 c0 -8 2 -15 4 -15 2 0 6 7 10 15 3 8 1 15 -4 15 -6 0
-10 -7 -10 -15z"/>
<path d="M5536 10117 c3 -10 9 -15 12 -12 3 3 0 11 -7 18 -10 9 -11 8 -5 -6z"/>
<path d="M5617 10116 c-3 -8 1 -20 9 -27 12 -10 18 -9 32 4 10 11 12 17 4 17
-7 0 -12 -5 -12 -11 0 -6 -6 -9 -12 -6 -7 2 -12 11 -10 21 4 20 -4 21 -11 2z"/>
<path d="M5810 10119 c0 -5 5 -7 10 -4 6 3 10 8 10 11 0 2 -4 4 -10 4 -5 0
-10 -5 -10 -11z"/>
<path d="M4253 10105 c0 -8 4 -12 9 -9 5 3 6 10 3 15 -9 13 -12 11 -12 -6z"/>
<path d="M4566 10092 l-19 -27 24 22 c12 12 21 24 18 27 -2 2 -13 -8 -23 -22z"/>
<path d="M5715 10110 c6 -10 4 -12 -11 -6 -15 6 -17 5 -6 -5 9 -9 15 -10 23
-2 8 8 7 13 -2 18 -8 6 -10 4 -4 -5z"/>
<path d="M4332 10100 c2 -10 -5 -15 -24 -15 -14 0 -29 -3 -32 -6 -4 -3 9 -5
29 -4 19 1 35 -2 35 -6 0 -5 9 -13 20 -19 16 -9 22 -6 35 19 11 22 12 32 3 37
-6 4 -9 3 -5 -2 3 -5 -1 -20 -9 -34 -7 -14 -13 -19 -14 -12 0 7 -4 10 -10 7
-5 -3 -11 -1 -11 4 -1 6 -2 15 -3 20 0 5 -5 13 -9 18 -5 4 -7 1 -5 -7z"/>
<path d="M4820 10100 c-12 -7 -10 -9 8 -7 12 0 22 5 22 9 0 11 -12 10 -30 -2z"/>
<path d="M5380 10106 c0 -2 7 -6 15 -10 8 -3 15 -1 15 4 0 6 -7 10 -15 10 -8
0 -15 -2 -15 -4z"/>
<path d="M5508 10103 c7 -3 16 -2 19 1 4 3 -2 6 -13 5 -11 0 -14 -3 -6 -6z"/>
<path d="M5895 10103 c3 -3 0 -12 -7 -20 -6 -7 -8 -16 -4 -20 3 -3 6 -1 6 6 0
7 4 10 9 7 11 -7 9 21 -2 29 -4 3 -5 2 -2 -2z"/>
<path d="M4460 10091 c0 -7 -4 -9 -10 -6 -5 3 -10 1 -10 -4 0 -6 4 -11 9 -11
13 0 25 20 17 27 -3 4 -6 1 -6 -6z"/>
<path d="M5588 10083 c7 -3 16 -2 19 1 4 3 -2 6 -13 5 -11 0 -14 -3 -6 -6z"/>
<path d="M5675 10080 c3 -5 8 -10 11 -10 2 0 4 5 4 10 0 6 -5 10 -11 10 -5 0
-7 -4 -4 -10z"/>
<path d="M5930 10075 c12 -15 4 -21 -23 -16 -5 1 -6 -3 -2 -9 4 -7 13 -7 26 1
16 8 18 13 8 25 -6 8 -14 14 -16 14 -3 0 0 -7 7 -15z"/>
<path d="M4410 10059 c0 -5 5 -7 10 -4 6 3 10 8 10 11 0 2 -4 4 -10 4 -5 0
-10 -5 -10 -11z"/>
<path d="M5956 10055 c-9 -26 -7 -32 5 -12 6 10 9 21 6 23 -2 3 -7 -2 -11 -11z"/>
<path d="M6135 10061 c-3 -5 -2 -12 3 -15 5 -3 9 1 9 9 0 17 -3 19 -12 6z"/>
<path d="M4211 10047 c-15 -19 17 -19 44 -1 11 8 14 14 8 14 -7 0 -15 -4 -18
-10 -3 -5 -11 -10 -16 -10 -6 0 -7 5 -4 10 9 15 -1 12 -14 -3z"/>
<path d="M5978 10049 c-4 -10 1 -15 13 -16 10 -1 19 3 19 8 0 6 -4 8 -9 5 -5
-4 -11 -1 -13 6 -3 8 -6 7 -10 -3z"/>
<path d="M6056 10039 c4 -8 -1 -9 -17 -4 -23 7 -23 7 -4 -8 15 -11 22 -12 27
-4 11 17 10 27 -3 27 -5 0 -7 -5 -3 -11z"/>
<path d="M4036 10027 c3 -10 9 -15 12 -12 3 3 0 11 -7 18 -10 9 -11 8 -5 -6z"/>
<path d="M4140 10026 c0 -2 7 -6 15 -10 8 -3 15 -1 15 4 0 6 -7 10 -15 10 -8
0 -15 -2 -15 -4z"/>
<path d="M6090 10020 c0 -5 5 -10 11 -10 5 0 7 5 4 10 -3 6 -8 10 -11 10 -2 0
-4 -4 -4 -10z"/>
<path d="M6153 10009 c6 -10 16 -15 21 -12 6 4 5 8 -2 11 -7 2 -10 7 -8 11 3
4 -1 8 -8 8 -11 0 -12 -4 -3 -18z"/>
<path d="M3937 9999 c4 -13 8 -18 11 -10 2 7 -1 18 -6 23 -8 8 -9 4 -5 -13z"/>
<path d="M4013 10014 c4 -7 0 -14 -8 -18 -8 -3 -15 -10 -15 -16 0 -7 7 -5 15
4 9 8 23 12 33 9 18 -7 17 -5 -12 17 -11 8 -17 10 -13 4z"/>
<path d="M6235 10011 c-3 -5 -2 -12 3 -15 5 -3 9 1 9 9 0 17 -3 19 -12 6z"/>
<path d="M3853 9991 c0 -11 5 -18 9 -15 4 3 5 11 1 19 -7 21 -12 19 -10 -4z"/>
<path d="M3967 9993 c3 -7 6 -13 8 -13 2 0 5 6 8 13 3 8 -1 14 -8 14 -7 0 -11
-6 -8 -14z"/>
<path d="M6276 9995 c-11 -8 -15 -15 -9 -15 6 0 16 7 23 15 16 19 11 19 -14 0z"/>
<path d="M3727 9979 c7 -7 15 -10 18 -7 3 3 -2 9 -12 12 -14 6 -15 5 -6 -5z"/>
<path d="M3875 9971 c-3 -5 -2 -12 3 -15 5 -3 9 1 9 9 0 17 -3 19 -12 6z"/>
<path d="M6348 9973 c7 -3 16 -2 19 1 4 3 -2 6 -13 5 -11 0 -14 -3 -6 -6z"/>
<path d="M6410 9976 c0 -3 9 -10 19 -16 15 -7 22 -7 27 2 4 7 4 10 -1 6 -4 -4
-16 -3 -26 3 -11 5 -19 7 -19 5z"/>
<path d="M6390 9960 c0 -5 5 -10 11 -10 5 0 7 5 4 10 -3 6 -8 10 -11 10 -2 0
-4 -4 -4 -10z"/>
<path d="M6510 9960 c0 -5 5 -10 11 -10 5 0 7 5 4 10 -3 6 -8 10 -11 10 -2 0
-4 -4 -4 -10z"/>
<path d="M3715 9940 c3 -5 8 -10 11 -10 2 0 4 5 4 10 0 6 -5 10 -11 10 -5 0
-7 -4 -4 -10z"/>
<path d="M3736 9925 c-3 -8 -1 -15 4 -15 6 0 10 7 10 15 0 8 -2 15 -4 15 -2 0
-6 -7 -10 -15z"/>
<path d="M6553 9933 c-15 -5 -17 -23 -4 -23 5 0 11 7 15 15 3 8 4 15 3 14 -1
0 -8 -3 -14 -6z"/>
<path d="M6630 9936 c0 -2 8 -10 18 -17 15 -13 16 -12 3 4 -13 16 -21 21 -21
13z"/>
<path d="M3631 9914 c0 -11 3 -14 6 -6 3 7 2 16 -1 19 -3 4 -6 -2 -5 -13z"/>
<path d="M3670 9925 c0 -5 5 -17 10 -25 5 -8 10 -10 10 -5 0 6 -5 17 -10 25
-5 8 -10 11 -10 5z"/>
<path d="M6560 9900 c-9 -6 -10 -10 -3 -10 6 0 15 5 18 10 8 12 4 12 -15 0z"/>
<path d="M3564 9876 c-10 -22 -10 -24 6 -14 10 7 16 18 13 25 -7 17 -6 17 -19
-11z"/>
<path d="M3600 9890 c8 -5 20 -10 25 -10 6 0 3 5 -5 10 -8 5 -19 10 -25 10 -5
0 -3 -5 5 -10z"/>
<path d="M6650 9880 c0 -11 4 -20 9 -20 5 0 7 9 4 20 -3 11 -7 20 -9 20 -2 0
-4 -9 -4 -20z"/>
<path d="M6740 9870 c-6 -11 -15 -18 -21 -15 -5 4 -9 1 -9 -5 0 -7 5 -10 12
-8 12 4 44 48 35 48 -4 0 -11 -9 -17 -20z"/>
<path d="M3415 9860 c-3 -5 -1 -10 4 -10 6 0 11 5 11 10 0 6 -2 10 -4 10 -3 0
-8 -4 -11 -10z"/>
<path d="M3450 9860 c-9 -6 -10 -10 -3 -10 6 0 15 5 18 10 8 12 4 12 -15 0z"/>
<path d="M3483 9855 c-7 -8 -9 -16 -5 -19 4 -3 13 4 20 15 14 22 3 25 -15 4z"/>
<path d="M6775 9860 c3 -5 8 -10 11 -10 2 0 4 5 4 10 0 6 -5 10 -11 10 -5 0
-7 -4 -4 -10z"/>
<path d="M6860 9860 c-8 -5 -10 -10 -5 -10 6 0 17 5 25 10 8 5 11 10 5 10 -5
0 -17 -5 -25 -10z"/>
<path d="M3335 9841 c-3 -5 -2 -12 3 -15 5 -3 9 1 9 9 0 17 -3 19 -12 6z"/>
<path d="M3381 9836 c-9 -11 -9 -16 0 -22 7 -4 9 -3 5 4 -3 5 0 12 6 15 7 2
10 7 7 11 -3 4 -12 0 -18 -8z"/>
<path d="M6807 9833 c3 -7 6 -13 8 -13 2 0 5 6 8 13 3 8 -1 14 -8 14 -7 0 -11
-6 -8 -14z"/>
<path d="M3406 9813 c-6 -14 -5 -15 5 -6 7 7 10 15 7 18 -3 3 -9 -2 -12 -12z"/>
<path d="M6875 9810 c-3 -6 1 -7 9 -4 18 7 21 14 7 14 -6 0 -13 -4 -16 -10z"/>
<path d="M3353 9795 c0 -8 4 -12 9 -9 4 3 8 9 8 15 0 5 -4 9 -8 9 -5 0 -9 -7
-9 -15z"/>
<path d="M6950 9801 c0 -6 4 -13 10 -16 6 -3 7 1 4 9 -7 18 -14 21 -14 7z"/>
<path d="M3205 9780 c-3 -6 1 -7 9 -4 18 7 21 14 7 14 -6 0 -13 -4 -16 -10z"/>
<path d="M3160 9760 c-8 -5 -10 -10 -5 -10 6 0 17 5 25 10 8 5 11 10 5 10 -5
0 -17 -5 -25 -10z"/>
<path d="M7023 9747 c0 -16 34 -20 43 -5 5 7 2 9 -8 5 -9 -3 -20 -1 -25 4 -6
6 -10 5 -10 -4z"/>
<path d="M7144 9715 c11 -8 12 -15 5 -22 -8 -8 -7 -13 1 -18 6 -4 17 -2 23 4
9 9 7 10 -7 5 -15 -6 -17 -4 -10 7 15 24 12 35 -8 35 -17 0 -17 -2 -4 -11z"/>
<path d="M2995 9671 c-3 -5 0 -13 6 -17 7 -4 9 -3 5 4 -3 5 0 13 6 15 9 4 10
6 1 6 -6 1 -14 -3 -18 -8z"/>
<path d="M2935 9659 c-4 -5 -3 -9 2 -8 4 1 15 1 23 -1 11 -1 9 -4 -5 -10 -13
-6 -15 -9 -5 -9 8 0 21 3 28 7 9 6 6 12 -12 20 -16 7 -27 8 -31 1z"/>
<path d="M7263 9635 c0 -8 4 -12 9 -9 5 3 6 10 3 15 -9 13 -12 11 -12 -6z"/>
<path d="M7295 9640 c-3 -5 -1 -10 4 -10 6 0 11 5 11 10 0 6 -2 10 -4 10 -3 0
-8 -4 -11 -10z"/>
<path d="M2910 9620 c0 -5 5 -10 10 -10 6 0 10 5 10 10 0 6 -4 10 -10 10 -5 0
-10 -4 -10 -10z"/>
<path d="M7338 9618 c6 -6 18 -8 28 -6 14 3 12 5 -9 10 -19 3 -25 2 -19 -4z"/>
<path d="M7410 9619 c0 -5 5 -7 10 -4 6 3 10 8 10 11 0 2 -4 4 -10 4 -5 0 -10
-5 -10 -11z"/>
<path d="M2770 9565 c-7 -9 -8 -15 -2 -15 5 0 12 7 16 15 3 8 4 15 2 15 -2 0
-9 -7 -16 -15z"/>
<path d="M7475 9570 c-4 -6 -11 -8 -16 -5 -5 4 -6 -2 -2 -11 4 -11 8 -13 11
-6 2 7 7 10 11 8 4 -3 8 1 8 9 0 18 -3 19 -12 5z"/>
<path d="M7420 9556 c0 -2 7 -7 16 -10 8 -3 12 -2 9 4 -6 10 -25 14 -25 6z"/>
<path d="M7532 9538 c2 -7 -2 -12 -7 -11 -6 1 -11 -7 -11 -17 0 -18 19 -21 33
-5 4 4 2 5 -4 1 -16 -9 -17 6 -2 21 8 8 8 13 0 18 -7 4 -10 1 -9 -7z"/>
<path d="M7476 9531 c-4 -5 -2 -12 3 -15 5 -4 12 -2 15 3 4 5 2 12 -3 15 -5 4
-12 2 -15 -3z"/>
<path d="M2713 9512 c0 -12 4 -22 8 -22 9 0 21 31 14 38 -3 3 -5 -1 -5 -9 0
-12 -2 -11 -10 1 -7 12 -9 10 -7 -8z"/>
<path d="M7593 9512 c2 -12 6 -24 10 -28 3 -4 4 4 2 16 -6 30 -16 40 -12 12z"/>
<path d="M2659 9488 c15 -21 2 -24 -18 -5 -11 10 -13 10 -7 0 4 -7 3 -13 -2
-13 -6 0 -13 -8 -16 -17 -6 -15 -5 -16 11 -1 10 8 23 13 30 11 19 -7 24 14 5
28 -15 13 -16 12 -3 -3z"/>
<path d="M7550 9480 c0 -5 7 -7 15 -4 8 4 15 1 15 -5 0 -5 9 -15 20 -21 16 -9
18 -8 14 5 -3 8 -10 13 -14 10 -4 -3 -10 2 -14 10 -6 16 -36 21 -36 5z"/>
<path d="M2570 9465 c0 -7 30 -13 34 -7 3 4 -4 9 -15 9 -10 1 -19 0 -19 -2z"/>
<path d="M7657 9457 c-7 -19 17 -47 32 -38 9 6 7 10 -8 14 -14 3 -19 10 -15
21 3 9 4 16 1 16 -3 0 -7 -6 -10 -13z"/>
<path d="M7719 9433 c-13 -16 -12 -17 4 -4 9 7 17 15 17 17 0 8 -8 3 -21 -13z"/>
<path d="M2579 9423 c-13 -16 -12 -17 4 -4 9 7 17 15 17 17 0 8 -8 3 -21 -13z"/>
<path d="M7751 9407 c2 -1 13 -9 24 -17 19 -14 19 -14 6 3 -7 9 -18 17 -24 17
-6 0 -8 -1 -6 -3z"/>
<path d="M2444 9374 c-18 -14 -18 -15 4 -4 12 6 22 13 22 15 0 8 -5 6 -26 -11z"/>
<path d="M7736 9381 c-3 -5 0 -14 8 -20 10 -9 15 -8 19 3 4 11 1 13 -10 9 -11
-4 -14 -2 -9 5 4 7 5 12 2 12 -3 0 -7 -4 -10 -9z"/>
<path d="M2468 9364 c-9 -9 -29 -17 -45 -17 -15 0 -23 -2 -16 -4 7 -2 10 -12
7 -21 -5 -15 -4 -15 6 1 6 9 16 17 23 17 15 1 52 28 46 35 -3 2 -12 -3 -21
-11z"/>
<path d="M7774 9359 c-9 -16 18 -30 33 -17 7 6 13 16 13 22 0 6 -5 3 -11 -7
-6 -9 -15 -15 -20 -12 -5 4 -7 11 -4 16 4 5 4 9 1 9 -3 0 -8 -5 -12 -11z"/>
<path d="M2350 9342 c0 -5 7 -9 15 -9 8 0 12 4 9 9 -3 4 -9 8 -15 8 -5 0 -9
-4 -9 -8z"/>
<path d="M7877 9295 c-4 -8 -3 -16 1 -19 4 -3 9 4 9 15 2 23 -3 25 -10 4z"/>
<path d="M7918 9296 c-16 -12 -16 -14 6 -24 17 -8 23 -7 23 3 0 8 -7 11 -16 7
-14 -5 -14 -3 -2 11 16 20 12 21 -11 3z"/>
<path d="M2286 9281 c-12 -13 -14 -21 -6 -26 6 -3 9 -2 8 3 -2 6 2 10 7 11 19
2 10 -24 -13 -35 -13 -6 -29 -17 -35 -24 -16 -16 19 1 68 34 30 21 33 26 20
36 -13 11 -14 10 -8 -6 6 -17 5 -17 -10 -5 -9 7 -14 17 -11 22 9 16 -2 10 -20
-10z"/>
<path d="M7996 9253 c-6 -14 -5 -15 5 -6 7 7 10 15 7 18 -3 3 -9 -2 -12 -12z"/>
<path d="M2236 9233 c-6 -14 -5 -15 5 -6 7 7 10 15 7 18 -3 3 -9 -2 -12 -12z"/>
<path d="M8018 9218 c5 -5 16 -8 23 -6 8 3 3 7 -10 11 -17 4 -21 3 -13 -5z"/>
<path d="M2177 9213 c-8 -18 -1 -36 16 -39 17 -2 17 -1 3 15 -9 10 -13 21 -9
24 3 4 4 7 0 7 -3 0 -8 -3 -10 -7z"/>
<path d="M7995 9200 c3 -5 8 -10 11 -10 2 0 4 5 4 10 0 6 -5 10 -11 10 -5 0
-7 -4 -4 -10z"/>
<path d="M8026 9192 c-3 -4 4 -9 15 -9 23 -2 25 3 4 10 -8 4 -16 3 -19 -1z"/>
<path d="M2125 9160 c-3 -5 -1 -10 4 -10 6 0 11 5 11 10 0 6 -2 10 -4 10 -3 0
-8 -4 -11 -10z"/>
<path d="M8055 9160 c3 -5 8 -10 11 -10 2 0 4 5 4 10 0 6 -5 10 -11 10 -5 0
-7 -4 -4 -10z"/>
<path d="M8086 9158 c3 -4 9 -8 15 -8 5 0 9 4 9 8 0 5 -7 9 -15 9 -8 0 -12 -4
-9 -9z"/>
<path d="M8159 9153 c-13 -16 -12 -17 4 -4 9 7 17 15 17 17 0 8 -8 3 -21 -13z"/>
<path d="M2104 9129 c0 -10 4 -19 8 -19 4 0 8 6 8 14 0 8 -4 17 -8 20 -4 2 -8
-4 -8 -15z"/>
<path d="M2150 9139 c0 -5 -5 -7 -12 -3 -7 4 -8 3 -4 -5 6 -9 11 -9 22 0 17
14 18 19 4 19 -5 0 -10 -5 -10 -11z"/>
<path d="M8113 9135 c-3 -9 -3 -19 1 -22 3 -4 6 1 6 11 0 10 5 14 12 10 7 -4
8 -3 4 4 -10 16 -15 15 -23 -3z"/>
<path d="M2016 9122 c-3 -5 1 -9 9 -9 8 0 12 4 9 9 -3 4 -7 8 -9 8 -2 0 -6 -4
-9 -8z"/>
<path d="M8150 9115 c0 -8 4 -15 10 -15 5 0 7 7 4 15 -4 8 -8 15 -10 15 -2 0
-4 -7 -4 -15z"/>
<path d="M8185 9100 c-3 -6 1 -7 9 -4 18 7 21 14 7 14 -6 0 -13 -4 -16 -10z"/>
<path d="M2036 9079 c2 -4 -2 -9 -8 -12 -7 -2 -1 -4 15 -4 15 0 30 3 33 8 3 5
-3 6 -12 2 -10 -4 -15 -2 -11 4 3 5 0 10 -8 10 -8 0 -12 -4 -9 -8z"/>
<path d="M8205 9080 c-3 -5 -1 -10 4 -10 6 0 11 5 11 10 0 6 -2 10 -4 10 -3 0
-8 -4 -11 -10z"/>
<path d="M8234 9054 c3 -21 33 -39 33 -20 0 8 -7 12 -15 8 -10 -3 -13 -1 -8 6
3 6 2 13 -3 16 -5 4 -8 -1 -7 -10z"/>
<path d="M8190 9056 c0 -2 7 -9 15 -16 9 -7 15 -8 15 -2 0 5 -7 12 -15 16 -8
3 -15 4 -15 2z"/>
<path d="M1895 9020 c3 -5 8 -10 11 -10 2 0 4 5 4 10 0 6 -5 10 -11 10 -5 0
-7 -4 -4 -10z"/>
<path d="M8276 9012 c-2 -4 -1 -14 4 -22 7 -11 9 -9 7 8 -1 24 -3 26 -11 14z"/>
<path d="M1879 8973 c-13 -16 -12 -17 4 -4 16 13 21 21 13 21 -2 0 -10 -8 -17
-17z"/>
<path d="M1895 8960 c-3 -5 -1 -10 4 -10 6 0 11 5 11 10 0 6 -2 10 -4 10 -3 0
-8 -4 -11 -10z"/>
<path d="M8396 8953 c-6 -14 -5 -15 5 -6 7 7 10 15 7 18 -3 3 -9 -2 -12 -12z"/>
<path d="M8355 8940 c-8 -13 13 -40 29 -39 7 0 6 2 -2 6 -6 2 -9 10 -6 15 4 7
2 8 -4 4 -7 -4 -12 -3 -12 3 0 5 6 12 13 14 9 4 9 6 0 6 -6 1 -15 -4 -18 -9z"/>
<path d="M1824 8911 c1 -17 26 -28 26 -11 0 6 -4 9 -9 5 -5 -3 -11 0 -14 7 -2
9 -4 8 -3 -1z"/>
<path d="M1794 8885 c1 -8 6 -18 11 -22 4 -5 5 -2 0 6 -6 11 -4 13 8 8 23 -9
21 0 -2 13 -15 7 -19 7 -17 -5z"/>
<path d="M1770 8860 c0 -5 5 -10 11 -10 5 0 7 -5 3 -12 -4 -7 -3 -8 5 -4 9 6
9 11 0 22 -14 17 -19 18 -19 4z"/>
<path d="M8445 8860 c-3 -5 -2 -10 4 -10 5 0 13 5 16 10 3 6 2 10 -4 10 -5 0
-13 -4 -16 -10z"/>
<path d="M8470 8846 c0 -12 60 -86 70 -86 5 0 -1 11 -13 24 -12 13 -30 34 -39
47 -10 13 -18 19 -18 15z"/>
<path d="M1736 8815 c-16 -14 -25 -25 -20 -25 12 1 58 39 52 45 -2 2 -17 -7
-32 -20z"/>
<path d="M1676 8822 c-3 -5 1 -9 9 -9 8 0 12 4 9 9 -3 4 -7 8 -9 8 -2 0 -6 -4
-9 -8z"/>
<path d="M8526 8799 c3 -5 9 -7 14 -4 4 3 11 0 13 -5 3 -6 4 -5 3 1 -1 7 -10
13 -19 15 -9 1 -15 -2 -11 -7z"/>
<path d="M1630 8786 c0 -2 7 -7 16 -10 8 -3 12 -2 9 4 -6 10 -25 14 -25 6z"/>
<path d="M1670 8760 c0 -5 5 -10 11 -10 5 0 7 5 4 10 -3 6 -8 10 -11 10 -2 0
-4 -4 -4 -10z"/>
<path d="M8616 8762 c-2 -4 -1 -14 4 -22 7 -11 9 -9 7 8 -1 24 -3 26 -11 14z"/>
<path d="M1647 8744 c-3 -3 -3 -12 0 -20 4 -10 0 -13 -13 -8 -15 5 -16 4 -4
-4 18 -14 29 -7 27 18 -1 22 -1 22 -10 14z"/>
<path d="M1590 8700 c0 -5 5 -10 10 -10 6 0 10 5 10 10 0 6 -4 10 -10 10 -5 0
-10 -4 -10 -10z"/>
<path d="M8640 8680 c-13 -8 -13 -10 1 -10 9 0 24 -9 34 -20 10 -11 23 -20 29
-20 6 0 3 5 -7 11 -9 6 -15 15 -11 20 3 5 0 8 -8 7 -7 -2 -12 3 -10 10 2 14
-7 15 -28 2z"/>
<path d="M1584 8660 c0 -13 4 -16 10 -10 7 7 7 13 0 20 -6 6 -10 3 -10 -10z"/>
<path d="M1555 8660 c3 -5 8 -10 11 -10 2 0 4 5 4 10 0 6 -5 10 -11 10 -5 0
-7 -4 -4 -10z"/>
<path d="M1530 8646 c0 -2 7 -7 16 -10 8 -3 12 -2 9 4 -6 10 -25 14 -25 6z"/>
<path d="M8650 8646 c0 -2 8 -10 18 -17 15 -13 16 -12 3 4 -13 16 -21 21 -21
13z"/>
<path d="M8735 8620 c5 -9 1 -10 -16 -6 -21 6 -22 6 -6 -5 13 -7 22 -8 29 -1
6 6 6 12 -3 17 -8 6 -10 4 -4 -5z"/>
<path d="M1469 8603 c-13 -16 -12 -17 4 -4 9 7 17 15 17 17 0 8 -8 3 -21 -13z"/>
<path d="M8750 8591 c0 -10 19 -25 25 -20 1 2 -3 10 -11 17 -8 7 -14 8 -14 3z"/>
<path d="M8725 8581 c-6 -11 13 -26 22 -17 4 3 1 6 -6 6 -7 0 -9 5 -6 10 3 6
4 10 1 10 -3 0 -7 -4 -11 -9z"/>
<path d="M1484 8566 c5 -13 2 -17 -9 -13 -8 4 -17 2 -20 -3 -9 -15 11 -20 28
-7 13 9 14 16 6 27 -9 12 -10 12 -5 -4z"/>
<path d="M8797 8543 c-4 -3 -7 -11 -7 -17 0 -6 5 -5 12 2 6 6 9 14 7 17 -3 3
-9 2 -12 -2z"/>
<path d="M8837 8515 c-4 -8 -3 -16 1 -19 4 -3 9 4 9 15 2 23 -3 25 -10 4z"/>
<path d="M1421 8513 c-1 -17 16 -25 25 -12 4 7 3 9 -4 5 -5 -3 -13 0 -15 6 -4
9 -6 10 -6 1z"/>
<path d="M8806 8486 c3 -9 10 -14 14 -11 8 5 28 -14 29 -27 1 -9 11 -11 11 -3
0 3 0 9 0 13 0 4 -13 16 -30 25 -25 15 -29 16 -24 3z"/>
<path d="M8916 8482 c-3 -5 1 -9 9 -9 8 0 12 4 9 9 -3 4 -7 8 -9 8 -2 0 -6 -4
-9 -8z"/>
<path d="M1270 8446 c0 -2 7 -7 16 -10 8 -3 12 -2 9 4 -6 10 -25 14 -25 6z"/>
<path d="M8875 8420 c3 -5 8 -10 11 -10 2 0 4 5 4 10 0 6 -5 10 -11 10 -5 0
-7 -4 -4 -10z"/>
<path d="M8901 8410 c0 -8 6 -26 13 -39 12 -21 14 -21 20 -6 3 10 4 20 1 23
-3 3 -5 -1 -6 -9 0 -8 -7 0 -14 16 -8 17 -14 23 -14 15z"/>
<path d="M8973 8405 c0 -8 4 -12 9 -9 5 3 6 10 3 15 -9 13 -12 11 -12 -6z"/>
<path d="M1256 8378 c3 -5 10 -6 15 -3 13 9 11 12 -6 12 -8 0 -12 -4 -9 -9z"/>
<path d="M1314 8375 c3 -9 -1 -18 -8 -21 -8 -3 -17 -13 -21 -22 -4 -11 2 -9
19 7 21 19 26 51 9 51 -3 0 -2 -7 1 -15z"/>
<path d="M1243 8338 c-13 -16 -13 -48 0 -48 5 0 6 7 3 16 -4 9 -1 23 5 30 6 8
9 14 6 14 -2 0 -9 -6 -14 -12z"/>
<path d="M8976 8338 c3 -5 10 -6 15 -3 13 9 11 12 -6 12 -8 0 -12 -4 -9 -9z"/>
<path d="M1204 8275 c-4 -8 -10 -13 -14 -10 -5 3 -11 1 -14 -4 -4 -5 1 -8 10
-7 15 2 42 36 29 36 -3 0 -8 -7 -11 -15z"/>
<path d="M9055 8220 c-3 -5 -1 -10 4 -10 6 0 11 5 11 10 0 6 -2 10 -4 10 -3 0
-8 -4 -11 -10z"/>
<path d="M9069 8199 c-6 -4 1 -6 15 -6 15 0 28 2 30 6 3 4 -4 7 -15 7 -11 0
-25 -3 -30 -7z"/>
<path d="M1093 8175 c0 -8 4 -12 9 -9 5 3 6 10 3 15 -9 13 -12 11 -12 -6z"/>
<path d="M9075 8170 c3 -5 8 -10 11 -10 2 0 4 5 4 10 0 6 -5 10 -11 10 -5 0
-7 -4 -4 -10z"/>
<path d="M1125 8159 c-4 -6 -5 -12 -2 -15 2 -3 7 2 10 11 7 17 1 20 -8 4z"/>
<path d="M1073 8146 c0 -15 22 -15 34 0 4 5 4 6 -1 2 -5 -4 -14 -3 -21 2 -8 7
-12 5 -12 -4z"/>
<path d="M9100 8151 c0 -6 4 -13 10 -16 6 -3 7 1 4 9 -7 18 -14 21 -14 7z"/>
<path d="M9122 8124 c-7 -8 -8 -14 -3 -14 10 0 25 19 20 25 -2 1 -10 -3 -17
-11z"/>
<path d="M995 8081 c-3 -5 -2 -12 3 -15 5 -3 9 1 9 9 0 17 -3 19 -12 6z"/>
<path d="M1065 8080 c3 -5 1 -10 -4 -10 -6 0 -11 -5 -11 -11 0 -8 4 -9 13 0 8
6 17 8 21 4 4 -4 4 0 0 10 -3 9 -10 17 -16 17 -5 0 -6 -4 -3 -10z"/>
<path d="M9161 8074 c0 -11 3 -14 6 -6 3 7 2 16 -1 19 -3 4 -6 -2 -5 -13z"/>
<path d="M988 7968 c2 -10 8 -18 13 -18 5 0 5 7 2 17 -4 11 -3 14 5 9 7 -4 12
-3 12 3 0 5 -8 9 -19 8 -12 -1 -17 -7 -13 -19z"/>
<path d="M956 7971 c-3 -5 1 -11 9 -14 9 -4 12 -1 8 9 -6 16 -10 17 -17 5z"/>
<path d="M9252 7961 c-11 -7 -11 -9 0 -14 9 -3 15 1 15 9 0 8 -1 14 -1 14 -1
0 -7 -4 -14 -9z"/>
<path d="M9290 7931 c0 -7 -4 -9 -10 -6 -5 3 -10 1 -10 -4 0 -6 4 -11 9 -11
13 0 25 20 17 27 -3 4 -6 1 -6 -6z"/>
<path d="M9293 7893 c-3 -8 -3 -17 1 -20 3 -4 6 1 6 10 0 10 7 15 20 12 11 -2
22 0 24 4 3 4 -7 7 -21 7 -14 0 -27 -6 -30 -13z"/>
<path d="M940 7879 c0 -5 5 -7 10 -4 6 3 10 8 10 11 0 2 -4 4 -10 4 -5 0 -10
-5 -10 -11z"/>
<path d="M9336 7855 c-9 -26 -7 -32 5 -12 6 10 9 21 6 23 -2 3 -7 -2 -11 -11z"/>
<path d="M890 7840 c0 -5 5 -10 10 -10 6 0 10 5 10 10 0 6 -4 10 -10 10 -5 0
-10 -4 -10 -10z"/>
<path d="M9355 7839 c-4 -6 -5 -12 -2 -15 2 -3 7 2 10 11 7 17 1 20 -8 4z"/>
<path d="M873 7815 c0 -8 4 -15 9 -15 4 0 8 4 8 9 0 6 -4 12 -8 15 -5 3 -9 -1
-9 -9z"/>
<path d="M9335 7800 c3 -5 8 -10 11 -10 2 0 4 5 4 10 0 6 -5 10 -11 10 -5 0
-7 -4 -4 -10z"/>
<path d="M9356 7783 c-6 -14 -5 -15 5 -6 7 7 10 15 7 18 -3 3 -9 -2 -12 -12z"/>
<path d="M9410 7779 c0 -5 5 -7 10 -4 6 3 10 8 10 11 0 2 -4 4 -10 4 -5 0 -10
-5 -10 -11z"/>
<path d="M9373 7750 c3 -21 27 -51 27 -34 0 5 5 2 11 -6 9 -13 10 -13 6 0 -2
8 -9 16 -15 16 -26 3 -26 6 -2 14 25 8 25 8 2 9 -13 1 -20 6 -17 11 3 6 1 10
-4 10 -6 0 -9 -9 -8 -20z"/>
<path d="M810 7720 c0 -5 9 -8 20 -7 21 1 18 10 -5 13 -8 1 -15 -2 -15 -6z"/>
<path d="M9450 7700 c0 -5 5 -10 11 -10 5 0 7 5 4 10 -3 6 -8 10 -11 10 -2 0
-4 -4 -4 -10z"/>
<path d="M793 7669 c-2 -23 3 -25 10 -4 4 8 3 16 -1 19 -4 3 -9 -4 -9 -15z"/>
<path d="M9420 7686 c0 -2 7 -7 16 -10 8 -3 12 -2 9 4 -6 10 -25 14 -25 6z"/>
<path d="M9437 7653 c-8 -7 31 -63 44 -63 5 0 9 5 9 11 0 5 -4 8 -9 4 -11 -6
-34 29 -25 38 3 3 1 8 -4 11 -5 3 -12 3 -15 -1z"/>
<path d="M765 7640 c-3 -5 -1 -10 4 -10 6 0 11 5 11 10 0 6 -2 10 -4 10 -3 0
-8 -4 -11 -10z"/>
<path d="M9470 7641 c0 -6 4 -13 10 -16 6 -3 7 1 4 9 -7 18 -14 21 -14 7z"/>
<path d="M780 7620 c-9 -6 -10 -10 -3 -10 6 0 15 5 18 10 8 12 4 12 -15 0z"/>
<path d="M750 7611 c0 -7 -4 -10 -9 -7 -5 4 -8 -2 -7 -11 4 -24 21 -27 37 -6
11 15 11 16 -1 6 -20 -18 -35 -16 -20 2 7 9 10 18 6 22 -3 3 -6 1 -6 -6z"/>
<path d="M9510 7581 c0 -6 4 -13 10 -16 6 -3 7 1 4 9 -7 18 -14 21 -14 7z"/>
<path d="M710 7540 c0 -5 7 -7 15 -4 8 4 15 8 15 10 0 2 -7 4 -15 4 -8 0 -15
-4 -15 -10z"/>
<path d="M9510 7540 c-9 -6 -10 -10 -3 -10 6 0 15 5 18 10 8 12 4 12 -15 0z"/>
<path d="M700 7510 c6 -11 13 -20 16 -20 2 0 0 9 -6 20 -6 11 -13 20 -16 20
-2 0 0 -9 6 -20z"/>
<path d="M9530 7520 c0 -5 5 -10 11 -10 5 0 7 5 4 10 -3 6 -8 10 -11 10 -2 0
-4 -4 -4 -10z"/>
<path d="M665 7500 c-3 -6 1 -7 9 -4 18 7 21 14 7 14 -6 0 -13 -4 -16 -10z"/>
<path d="M681 7476 c-15 -17 -1 -28 19 -15 11 6 12 9 2 9 -7 0 -10 5 -7 10 9
15 -1 12 -14 -4z"/>
<path d="M651 7465 c1 -19 18 -51 18 -35 0 8 -4 22 -9 30 -5 8 -9 11 -9 5z"/>
<path d="M9577 7389 c7 -7 15 -10 18 -7 3 3 -2 9 -12 12 -14 6 -15 5 -6 -5z"/>
<path d="M595 7340 c-3 -5 -1 -10 4 -10 6 0 11 5 11 10 0 6 -2 10 -4 10 -3 0
-8 -4 -11 -10z"/>
<path d="M9616 7332 c-2 -4 -1 -14 4 -22 7 -11 9 -9 7 8 -1 24 -3 26 -11 14z"/>
<path d="M570 7299 c0 -5 5 -7 10 -4 6 3 10 8 10 11 0 2 -4 4 -10 4 -5 0 -10
-5 -10 -11z"/>
<path d="M9660 7279 c0 -5 5 -7 10 -4 6 3 10 8 10 11 0 2 -4 4 -10 4 -5 0 -10
-5 -10 -11z"/>
<path d="M536 7258 c3 -4 11 -5 19 -1 21 7 19 12 -4 10 -11 0 -18 -5 -15 -9z"/>
<path d="M9660 7253 c0 -6 8 -17 18 -24 16 -13 16 -13 2 6 -8 11 -16 22 -17
24 -2 2 -3 0 -3 -6z"/>
<path d="M9665 7209 c11 -13 21 -26 22 -28 2 -2 3 2 3 10 0 8 -10 20 -22 28
l-23 14 20 -24z"/>
<path d="M9709 7183 c-13 -16 -12 -17 4 -4 9 7 17 15 17 17 0 8 -8 3 -21 -13z"/>
<path d="M495 7180 c3 -5 8 -10 11 -10 2 0 4 5 4 10 0 6 -5 10 -11 10 -5 0 -7
-4 -4 -10z"/>
<path d="M9700 7146 c0 -2 7 -6 15 -10 8 -3 15 -1 15 4 0 6 -7 10 -15 10 -8 0
-15 -2 -15 -4z"/>
<path d="M9735 7121 c-3 -5 -2 -12 3 -15 5 -3 9 1 9 9 0 17 -3 19 -12 6z"/>
<path d="M497 7107 c-3 -8 3 -14 16 -15 12 0 17 2 12 6 -6 4 -13 11 -16 15 -4
4 -9 2 -12 -6z"/>
<path d="M9715 7091 c-9 -15 15 -25 28 -12 9 9 7 10 -7 5 -13 -5 -17 -4 -12 4
4 7 5 12 2 12 -3 0 -7 -4 -11 -9z"/>
<path d="M487 7049 c7 -7 15 -10 18 -7 3 3 -2 9 -12 12 -14 6 -15 5 -6 -5z"/>
<path d="M9810 6980 c0 -5 5 -10 11 -10 5 0 7 5 4 10 -3 6 -8 10 -11 10 -2 0
-4 -4 -4 -10z"/>
<path d="M451 6964 c0 -11 3 -14 6 -6 3 7 2 16 -1 19 -3 4 -6 -2 -5 -13z"/>
<path d="M401 6916 c-9 -11 -9 -16 1 -22 7 -4 10 -4 6 1 -4 4 -3 14 3 22 6 7
9 13 6 13 -2 0 -10 -6 -16 -14z"/>
<path d="M9797 6909 c7 -7 15 -10 18 -7 3 3 -2 9 -12 12 -14 6 -15 5 -6 -5z"/>
<path d="M9814 6868 c0 -10 1 -18 3 -18 1 0 7 8 12 18 7 13 6 19 -2 19 -7 0
-13 -9 -13 -19z"/>
<path d="M396 6863 c-6 -14 -5 -15 5 -6 7 7 10 15 7 18 -3 3 -9 -2 -12 -12z"/>
<path d="M9824 6838 c-7 -11 5 -28 19 -27 9 0 9 2 0 6 -7 2 -13 9 -13 14 0 6
4 8 9 4 5 -3 12 -2 15 3 3 5 -2 9 -10 9 -8 0 -17 -4 -20 -9z"/>
<path d="M370 6819 c0 -5 5 -7 10 -4 6 3 10 8 10 11 0 2 -4 4 -10 4 -5 0 -10
-5 -10 -11z"/>
<path d="M405 6820 c3 -5 8 -10 11 -10 2 0 4 5 4 10 0 6 -5 10 -11 10 -5 0 -7
-4 -4 -10z"/>
<path d="M390 6800 c0 -5 5 -10 11 -10 5 0 7 5 4 10 -3 6 -8 10 -11 10 -2 0
-4 -4 -4 -10z"/>
<path d="M363 6775 c-3 -9 -3 -19 1 -22 3 -4 6 1 6 11 0 10 5 14 12 10 7 -4 8
-3 4 4 -10 16 -15 15 -23 -3z"/>
<path d="M9845 6760 c3 -5 11 -10 16 -10 6 0 7 5 4 10 -3 6 -11 10 -16 10 -6
0 -7 -4 -4 -10z"/>
<path d="M9916 6753 c-6 -14 -5 -15 5 -6 7 7 10 15 7 18 -3 3 -9 -2 -12 -12z"/>
<path d="M9870 6740 c-9 -6 -10 -10 -3 -10 6 0 15 5 18 10 8 12 4 12 -15 0z"/>
<path d="M345 6720 c-3 -5 -1 -10 4 -10 6 0 11 5 11 10 0 6 -2 10 -4 10 -3 0
-8 -4 -11 -10z"/>
<path d="M9887 6639 c7 -7 15 -10 18 -7 3 3 -2 9 -12 12 -14 6 -15 5 -6 -5z"/>
<path d="M9910 6620 c-9 -6 -10 -10 -3 -10 6 0 15 5 18 10 8 12 4 12 -15 0z"/>
<path d="M9930 6560 c0 -5 5 -10 11 -10 5 0 7 5 4 10 -3 6 -8 10 -11 10 -2 0
-4 -4 -4 -10z"/>
<path d="M256 6547 c3 -10 9 -15 12 -12 3 3 0 11 -7 18 -10 9 -11 8 -5 -6z"/>
<path d="M285 6540 c-5 -8 -4 -11 2 -7 6 4 13 0 16 -7 3 -8 1 -17 -6 -20 -9
-3 -9 -5 0 -5 19 -1 23 15 9 34 -10 14 -15 15 -21 5z"/>
<path d="M9937 6510 c-3 -11 -2 -22 2 -24 4 -3 8 6 9 20 2 29 -4 31 -11 4z"/>
<path d="M276 6478 c3 -4 9 -8 15 -8 5 0 9 4 9 8 0 5 -7 9 -15 9 -8 0 -12 -4
-9 -9z"/>
<path d="M255 6440 c3 -5 8 -10 11 -10 2 0 4 5 4 10 0 6 -5 10 -11 10 -5 0 -7
-4 -4 -10z"/>
<path d="M9996 6433 c-6 -14 -5 -15 5 -6 7 7 10 15 7 18 -3 3 -9 -2 -12 -12z"/>
<path d="M269 6409 c-8 -16 -8 -24 2 -33 9 -8 10 -8 5 1 -4 7 -2 22 4 33 6 11
8 20 6 20 -3 0 -10 -9 -17 -21z"/>
<path d="M9950 6406 c0 -3 9 -10 20 -16 11 -6 20 -8 20 -6 0 3 -9 10 -20 16
-11 6 -20 8 -20 6z"/>
<path d="M240 6355 c-7 -9 -8 -15 -2 -15 5 0 12 7 16 15 3 8 4 15 2 15 -2 0
-9 -7 -16 -15z"/>
<path d="M227 6306 c-4 -10 1 -12 14 -9 23 6 24 9 5 16 -8 3 -17 0 -19 -7z"/>
<path d="M9986 6294 c-4 -9 -4 -19 -1 -22 3 -3 5 0 5 7 0 7 4 10 8 7 5 -3 9 1
9 9 0 20 -13 19 -21 -1z"/>
<path d="M210 6260 c0 -5 5 -10 11 -10 5 0 7 5 4 10 -3 6 -8 10 -11 10 -2 0
-4 -4 -4 -10z"/>
<path d="M10015 6260 c3 -5 8 -10 11 -10 2 0 4 5 4 10 0 6 -5 10 -11 10 -5 0
-7 -4 -4 -10z"/>
<path d="M220 6232 c0 -6 -8 -9 -17 -6 -15 5 -16 4 -3 -5 16 -11 40 3 27 16
-4 3 -7 1 -7 -5z"/>
<path d="M10019 6193 c0 -5 -2 -16 -4 -26 -2 -11 -1 -16 3 -13 8 8 14 46 7 46
-3 0 -5 -3 -6 -7z"/>
<path d="M196 6182 c-2 -4 -1 -14 4 -22 7 -11 9 -9 7 8 -1 24 -3 26 -11 14z"/>
<path d="M10025 6140 c-3 -6 1 -7 9 -4 18 7 21 14 7 14 -6 0 -13 -4 -16 -10z"/>
<path d="M177 6125 c-4 -8 -3 -16 1 -19 4 -3 9 4 9 15 2 23 -3 25 -10 4z"/>
<path d="M10035 6120 c-17 -8 -17 -9 7 -7 15 1 24 5 22 9 -3 4 -6 8 -7 7 -1 0
-11 -4 -22 -9z"/>
<path d="M10056 6087 c3 -10 9 -15 12 -12 3 3 0 11 -7 18 -10 9 -11 8 -5 -6z"/>
<path d="M187 6049 c6 -23 9 -24 16 -5 3 8 0 17 -7 19 -10 4 -12 -1 -9 -14z"/>
<path d="M150 6046 c0 -2 7 -7 16 -10 8 -3 12 -2 9 4 -6 10 -25 14 -25 6z"/>
<path d="M10045 6000 c-3 -6 1 -7 9 -4 18 7 21 14 7 14 -6 0 -13 -4 -16 -10z"/>
<path d="M10055 5980 c-3 -5 -1 -10 4 -10 6 0 11 5 11 10 0 6 -2 10 -4 10 -3
0 -8 -4 -11 -10z"/>
<path d="M10056 5951 c-4 -5 -2 -12 3 -15 5 -4 12 -2 15 3 4 5 2 12 -3 15 -5
4 -12 2 -15 -3z"/>
<path d="M10090 5940 c0 -5 5 -10 11 -10 5 0 7 5 4 10 -3 6 -8 10 -11 10 -2 0
-4 -4 -4 -10z"/>
<path d="M160 5925 c6 -8 8 -20 4 -27 -5 -10 -4 -10 5 -2 13 12 5 44 -11 44
-6 0 -5 -6 2 -15z"/>
<path d="M141 5884 c0 -11 3 -14 6 -6 3 7 2 16 -1 19 -3 4 -6 -2 -5 -13z"/>
<path d="M165 5869 c-4 -6 -5 -12 -2 -15 2 -3 7 2 10 11 7 17 1 20 -8 4z"/>
<path d="M142 5840 c0 -14 2 -19 5 -12 2 6 2 18 0 25 -3 6 -5 1 -5 -13z"/>
<path d="M115 5820 c-3 -5 -1 -10 4 -10 6 0 11 5 11 10 0 6 -2 10 -4 10 -3 0
-8 -4 -11 -10z"/>
<path d="M150 5799 c0 -5 5 -7 10 -4 6 3 10 8 10 11 0 2 -4 4 -10 4 -5 0 -10
-5 -10 -11z"/>
<path d="M10136 5782 c-3 -5 1 -9 9 -9 8 0 12 4 9 9 -3 4 -7 8 -9 8 -2 0 -6
-4 -9 -8z"/>
<path d="M120 5756 c0 -8 4 -17 9 -20 5 -4 7 3 4 14 -6 23 -13 26 -13 6z"/>
<path d="M10135 5740 c-3 -5 -1 -10 4 -10 6 0 11 5 11 10 0 6 -2 10 -4 10 -3
0 -8 -4 -11 -10z"/>
<path d="M105 5700 c-3 -6 1 -7 9 -4 18 7 21 14 7 14 -6 0 -13 -4 -16 -10z"/>
<path d="M128 5689 c-10 -10 -14 -19 -10 -19 5 0 17 9 27 20 10 11 14 20 9 19
-5 0 -17 -9 -26 -20z"/>
<path d="M10090 5681 c0 -6 5 -13 10 -16 6 -3 10 -11 10 -16 0 -6 -4 -7 -10
-4 -6 4 -7 -1 -3 -11 6 -15 7 -15 15 0 6 11 6 22 -1 30 -6 7 -8 16 -4 19 3 4
1 7 -5 7 -7 0 -12 -4 -12 -9z"/>
<path d="M126 5645 c-9 -14 -13 -25 -8 -25 5 0 14 11 20 25 6 14 10 25 8 25
-2 0 -11 -11 -20 -25z"/>
<path d="M112 5594 c10 -10 20 -16 22 -13 3 3 -5 11 -17 18 -21 13 -21 12 -5
-5z"/>
<path d="M10133 5595 c0 -8 4 -12 9 -9 5 3 6 10 3 15 -9 13 -12 11 -12 -6z"/>
<path d="M10155 5571 c-3 -5 -2 -12 3 -15 5 -3 9 1 9 9 0 17 -3 19 -12 6z"/>
<path d="M101 5554 c0 -11 3 -14 6 -6 3 7 2 16 -1 19 -3 4 -6 -2 -5 -13z"/>
<path d="M100 5500 c-12 -7 -10 -9 7 -7 12 0 19 5 17 9 -6 10 -6 10 -24 -2z"/>
<path d="M10109 5493 c-13 -16 -12 -17 4 -4 16 13 21 21 13 21 -2 0 -10 -8
-17 -17z"/>
<path d="M10127 5485 c-13 -18 -14 -25 -5 -31 7 -4 10 -3 5 1 -4 5 0 17 10 27
9 10 14 20 12 22 -2 2 -12 -6 -22 -19z"/>
<path d="M108 5473 c7 -3 16 -2 19 1 4 3 -2 6 -13 5 -11 0 -14 -3 -6 -6z"/>
<path d="M10134 5438 c-4 -5 -3 -12 0 -15 3 -4 6 -1 6 6 0 7 4 10 9 6 5 -3 12
-2 15 3 3 5 -2 9 -10 9 -8 0 -17 -4 -20 -9z"/>
<path d="M10135 5380 c3 -5 8 -10 11 -10 2 0 4 5 4 10 0 6 -5 10 -11 10 -5 0
-7 -4 -4 -10z"/>
<path d="M10110 5360 c0 -5 5 -10 10 -10 6 0 10 5 10 10 0 6 -4 10 -10 10 -5
0 -10 -4 -10 -10z"/>
<path d="M10121 5329 c-1 -23 25 -44 35 -28 4 8 3 9 -5 5 -7 -4 -15 2 -20 16
-7 15 -10 17 -10 7z"/>
<path d="M75 5279 c-3 -4 2 -6 10 -5 21 3 28 13 10 13 -9 0 -18 -4 -20 -8z"/>
<path d="M50 5219 c0 -5 5 -7 10 -4 6 3 10 8 10 11 0 2 -4 4 -10 4 -5 0 -10
-5 -10 -11z"/>
<path d="M90 5216 c0 -2 7 -9 15 -16 9 -7 15 -8 15 -2 0 5 -7 12 -15 16 -8 3
-15 4 -15 2z"/>
<path d="M10125 5200 c6 -30 16 -40 12 -12 -2 12 -6 24 -10 28 -3 4 -4 -4 -2
-16z"/>
<path d="M73 5174 c0 -9 4 -11 12 -4 17 14 27 0 12 -19 -11 -14 -10 -14 6 -2
12 10 15 17 8 24 -16 16 -38 16 -38 1z"/>
<path d="M10155 5049 c-4 -6 -5 -12 -2 -15 2 -3 7 2 10 11 7 17 1 20 -8 4z"/>
<path d="M95 5030 c-3 -6 1 -7 9 -4 18 7 21 14 7 14 -6 0 -13 -4 -16 -10z"/>
<path d="M10125 5000 c-3 -6 1 -7 9 -4 18 7 21 14 7 14 -6 0 -13 -4 -16 -10z"/>
<path d="M10134 4979 c-3 -6 -3 -13 0 -16 3 -4 6 -1 6 5 0 6 7 9 15 6 8 -4 15
-4 15 -1 0 11 -30 16 -36 6z"/>
<path d="M10153 4915 c0 -8 4 -12 9 -9 5 3 6 10 3 15 -9 13 -12 11 -12 -6z"/>
<path d="M10131 4834 c0 -11 3 -14 6 -6 3 7 2 16 -1 19 -3 4 -6 -2 -5 -13z"/>
<path d="M10153 4825 c0 -8 4 -12 9 -9 5 3 6 10 3 15 -9 13 -12 11 -12 -6z"/>
<path d="M80 4820 c-9 -6 -10 -10 -3 -10 6 0 15 5 18 10 8 12 4 12 -15 0z"/>
<path d="M115 4820 c3 -5 8 -10 11 -10 2 0 4 5 4 10 0 6 -5 10 -11 10 -5 0 -7
-4 -4 -10z"/>
<path d="M97 4796 c-4 -10 -1 -13 8 -9 8 3 12 9 9 14 -7 12 -11 11 -17 -5z"/>
<path d="M10110 4799 c0 -5 5 -7 10 -4 6 3 10 8 10 11 0 2 -4 4 -10 4 -5 0
-10 -5 -10 -11z"/>
<path d="M10135 4791 c-3 -5 -2 -12 3 -15 5 -3 9 1 9 9 0 17 -3 19 -12 6z"/>
<path d="M70 4761 c0 -6 4 -13 10 -16 6 -3 7 1 4 9 -7 18 -14 21 -14 7z"/>
<path d="M100 4766 c0 -2 7 -6 15 -10 8 -3 15 -1 15 4 0 6 -7 10 -15 10 -8 0
-15 -2 -15 -4z"/>
<path d="M10107 4738 c2 -5 10 -8 18 -8 8 0 16 3 18 8 3 4 -5 7 -18 7 -13 0
-21 -3 -18 -7z"/>
<path d="M79 4693 c-13 -16 -12 -17 4 -4 9 7 17 15 17 17 0 8 -8 3 -21 -13z"/>
<path d="M110 4700 c0 -5 5 -10 10 -10 6 0 10 5 10 10 0 6 -4 10 -10 10 -5 0
-10 -4 -10 -10z"/>
<path d="M10100 4701 c0 -5 9 -7 20 -4 11 3 20 7 20 9 0 2 -9 4 -20 4 -11 0
-20 -4 -20 -9z"/>
<path d="M116 4672 c-3 -5 1 -9 9 -9 8 0 12 4 9 9 -3 4 -7 8 -9 8 -2 0 -6 -4
-9 -8z"/>
<path d="M10113 4650 c5 -29 13 -33 13 -5 0 14 -4 25 -8 25 -4 0 -7 -9 -5 -20z"/>
<path d="M94 4618 c-3 -4 5 -5 17 -3 30 6 36 14 9 12 -12 -1 -24 -5 -26 -9z"/>
<path d="M10106 4595 c20 -30 20 -30 20 -6 0 11 -4 17 -8 15 -4 -3 -8 0 -8 5
0 6 -5 11 -10 11 -6 0 -3 -11 6 -25z"/>
<path d="M10090 4560 c0 -5 5 -10 10 -10 6 0 10 5 10 10 0 6 -4 10 -10 10 -5
0 -10 -4 -10 -10z"/>
<path d="M142 4531 c-11 -7 -11 -9 0 -14 9 -3 15 1 15 9 0 8 -1 14 -1 14 -1 0
-7 -4 -14 -9z"/>
<path d="M10095 4531 c-3 -5 -2 -12 3 -15 5 -3 9 1 9 9 0 17 -3 19 -12 6z"/>
<path d="M114 4503 c3 -4 0 -13 -6 -22 -10 -12 -7 -12 8 2 11 9 23 16 25 15 2
-2 3 -1 1 1 -1 3 -10 6 -18 7 -9 1 -13 0 -10 -3z"/>
<path d="M10135 4500 c-3 -5 -1 -10 4 -10 6 0 11 5 11 10 0 6 -2 10 -4 10 -3
0 -8 -4 -11 -10z"/>
<path d="M10093 4486 c-9 -11 -9 -15 0 -19 7 -3 14 3 14 14 2 22 2 22 -14 5z"/>
<path d="M138 4443 c5 -21 7 -23 10 -9 2 10 0 22 -6 28 -6 6 -7 0 -4 -19z"/>
<path d="M10096 4442 c-2 -4 -1 -14 4 -22 7 -11 9 -9 7 8 -1 24 -3 26 -11 14z"/>
<path d="M157 4413 c-10 -9 -9 -23 1 -23 5 0 9 7 9 15 0 17 -1 18 -10 8z"/>
<path d="M10074 4385 c1 -8 6 -18 11 -22 4 -4 5 -3 2 4 -4 6 -2 13 5 15 8 3 6
6 -4 10 -10 4 -15 2 -14 -7z"/>
<path d="M10063 4345 c0 -8 4 -12 9 -9 5 3 6 10 3 15 -9 13 -12 11 -12 -6z"/>
<path d="M10090 4340 c0 -5 5 -10 11 -10 5 0 7 5 4 10 -3 6 -8 10 -11 10 -2 0
-4 -4 -4 -10z"/>
<path d="M10055 4311 c-3 -5 -2 -12 3 -15 5 -3 9 1 9 9 0 17 -3 19 -12 6z"/>
<path d="M156 4287 c3 -10 9 -15 12 -12 3 3 0 11 -7 18 -10 9 -11 8 -5 -6z"/>
<path d="M10075 4280 c-16 -7 -17 -9 -3 -9 9 -1 20 4 23 9 7 11 7 11 -20 0z"/>
<path d="M177 4218 c7 -8 11 -17 8 -20 -3 -2 2 -5 10 -5 21 0 19 10 -7 26 -20
13 -22 12 -11 -1z"/>
<path d="M10055 4220 c3 -5 8 -10 11 -10 2 0 4 5 4 10 0 6 -5 10 -11 10 -5 0
-7 -4 -4 -10z"/>
<path d="M156 4201 c-3 -5 2 -15 12 -22 15 -12 16 -12 5 2 -7 9 -10 19 -6 22
3 4 4 7 0 7 -3 0 -8 -4 -11 -9z"/>
<path d="M10055 4180 c-3 -5 -1 -10 4 -10 6 0 11 5 11 10 0 6 -2 10 -4 10 -3
0 -8 -4 -11 -10z"/>
<path d="M10030 4120 c-13 -8 -12 -10 3 -10 9 0 17 5 17 10 0 12 -1 12 -20 0z"/>
<path d="M10035 4080 c-3 -5 -1 -10 4 -10 6 0 11 5 11 10 0 6 -2 10 -4 10 -3
0 -8 -4 -11 -10z"/>
<path d="M10036 4033 c-6 -14 -5 -15 5 -6 7 7 10 15 7 18 -3 3 -9 -2 -12 -12z"/>
<path d="M217 4014 c4 -12 3 -15 -5 -10 -16 10 -15 1 1 -12 10 -8 13 -6 14 8
1 11 -2 22 -8 25 -5 4 -6 -2 -2 -11z"/>
<path d="M9998 3983 c7 -3 16 -2 19 1 4 3 -2 6 -13 5 -11 0 -14 -3 -6 -6z"/>
<path d="M235 3920 c3 -5 8 -10 11 -10 2 0 4 5 4 10 0 6 -5 10 -11 10 -5 0 -7
-4 -4 -10z"/>
<path d="M257 3854 c4 -12 3 -15 -5 -10 -16 10 -15 1 1 -12 10 -8 13 -6 14 8
1 11 -2 22 -8 25 -5 4 -6 -2 -2 -11z"/>
<path d="M9955 3820 c3 -5 8 -10 11 -10 2 0 4 5 4 10 0 6 -5 10 -11 10 -5 0
-7 -4 -4 -10z"/>
<path d="M270 3800 c0 -5 7 -7 15 -4 8 4 15 8 15 10 0 2 -7 4 -15 4 -8 0 -15
-4 -15 -10z"/>
<path d="M9970 3779 c0 -5 5 -7 10 -4 6 3 10 8 10 11 0 2 -4 4 -10 4 -5 0 -10
-5 -10 -11z"/>
<path d="M9946 3765 c-9 -26 -7 -32 5 -12 6 10 9 21 6 23 -2 3 -7 -2 -11 -11z"/>
<path d="M275 3750 c-3 -6 1 -7 9 -4 18 7 21 14 7 14 -6 0 -13 -4 -16 -10z"/>
<path d="M285 3720 c-3 -5 -1 -10 4 -10 6 0 11 5 11 10 0 6 -2 10 -4 10 -3 0
-8 -4 -11 -10z"/>
<path d="M310 3701 c0 -6 4 -13 10 -16 6 -3 7 1 4 9 -7 18 -14 21 -14 7z"/>
<path d="M9909 3683 c-13 -17 -13 -17 6 -3 11 8 22 16 24 17 2 2 0 3 -6 3 -6
0 -17 -8 -24 -17z"/>
<path d="M9910 3637 c0 -2 6 -10 14 -16 11 -9 16 -9 22 1 4 7 4 10 -1 6 -4 -4
-14 -3 -22 3 -7 6 -13 9 -13 6z"/>
<path d="M315 3620 c3 -5 8 -10 11 -10 2 0 4 5 4 10 0 6 -5 10 -11 10 -5 0 -7
-4 -4 -10z"/>
<path d="M307 3599 c7 -7 15 -10 18 -7 3 3 -2 9 -12 12 -14 6 -15 5 -6 -5z"/>
<path d="M345 3591 c-6 -11 13 -26 22 -17 4 3 1 6 -6 6 -7 0 -9 5 -6 10 3 6 4
10 1 10 -3 0 -7 -4 -11 -9z"/>
<path d="M9869 3553 c-7 -10 -9 -15 -5 -11 5 4 16 2 25 -5 14 -10 14 -10 4 4
-7 9 -10 19 -6 22 3 4 4 7 1 7 -3 0 -12 -8 -19 -17z"/>
<path d="M350 3539 c0 -5 5 -7 10 -4 6 3 10 8 10 11 0 2 -4 4 -10 4 -5 0 -10
-5 -10 -11z"/>
<path d="M360 3520 c-9 -6 -10 -10 -3 -10 6 0 15 5 18 10 8 12 4 12 -15 0z"/>
<path d="M9862 3505 c3 -3 16 -8 28 -10 12 -2 20 -1 16 2 -4 4 -16 8 -28 10
-12 2 -19 1 -16 -2z"/>
<path d="M350 3483 c0 -6 8 -17 18 -24 16 -13 16 -13 2 6 -8 11 -16 22 -17 24
-2 2 -3 0 -3 -6z"/>
<path d="M9855 3480 c3 -5 8 -10 11 -10 2 0 4 5 4 10 0 6 -5 10 -11 10 -5 0
-7 -4 -4 -10z"/>
<path d="M9853 3452 c-7 -4 -9 -13 -4 -21 6 -9 10 -7 14 8 3 12 4 21 4 21 -1
0 -7 -4 -14 -8z"/>
<path d="M384 3409 c0 -14 3 -16 16 -6 8 6 16 12 18 13 1 1 -5 4 -15 6 -13 4
-19 0 -19 -13z"/>
<path d="M9830 3401 c0 -6 4 -13 10 -16 6 -3 7 1 4 9 -7 18 -14 21 -14 7z"/>
<path d="M9813 3383 c4 -6 1 -14 -5 -16 -10 -4 -10 -6 0 -6 7 -1 10 -6 6 -13
-4 -6 -3 -8 4 -5 12 8 10 32 -3 44 -4 4 -5 3 -2 -4z"/>
<path d="M9779 3268 c-3 -6 -6 -48 -4 -48 1 0 9 8 16 17 12 14 12 16 0 8 -11
-6 -13 -4 -8 8 5 13 1 25 -4 15z"/>
<path d="M457 3249 c7 -7 15 -10 18 -7 3 3 -2 9 -12 12 -14 6 -15 5 -6 -5z"/>
<path d="M9750 3221 c0 -6 4 -13 10 -16 6 -3 7 1 4 9 -7 18 -14 21 -14 7z"/>
<path d="M479 3188 c-7 -23 -4 -35 7 -35 10 0 11 4 3 13 -7 8 -6 14 3 17 10 4
10 6 1 6 -7 1 -13 0 -14 -1z"/>
<path d="M505 3120 c-3 -6 1 -7 9 -4 18 7 21 14 7 14 -6 0 -13 -4 -16 -10z"/>
<path d="M514 3076 c1 -8 5 -18 8 -22 4 -3 5 1 4 10 -1 8 -5 18 -8 22 -4 3 -5
-1 -4 -10z"/>
<path d="M549 3043 c-13 -16 -12 -17 4 -4 9 7 17 15 17 17 0 8 -8 3 -21 -13z"/>
<path d="M555 3020 c-3 -5 -1 -10 4 -10 6 0 11 5 11 10 0 6 -2 10 -4 10 -3 0
-8 -4 -11 -10z"/>
<path d="M9677 3013 c-10 -9 -9 -23 1 -23 5 0 9 7 9 15 0 17 -1 18 -10 8z"/>
<path d="M9633 2950 c-1 -11 2 -20 7 -20 4 0 7 7 6 15 -3 23 -12 26 -13 5z"/>
<path d="M574 2938 c-5 -7 -3 -8 5 -4 7 5 19 0 27 -10 14 -18 14 -18 4 4 -12
24 -25 28 -36 10z"/>
<path d="M622 2886 c14 -10 15 -15 5 -26 -10 -12 -9 -12 6 -1 23 18 22 28 -5
34 -21 5 -21 5 -6 -7z"/>
<path d="M585 2860 c-3 -6 1 -7 9 -4 18 7 21 14 7 14 -6 0 -13 -4 -16 -10z"/>
<path d="M662 2835 c6 -14 15 -25 20 -25 5 0 1 11 -8 25 -9 14 -18 25 -20 25
-2 0 2 -11 8 -25z"/>
<path d="M9590 2846 c0 -2 7 -7 16 -10 8 -3 12 -2 9 4 -6 10 -25 14 -25 6z"/>
<path d="M9575 2820 c-3 -6 1 -7 9 -4 18 7 21 14 7 14 -6 0 -13 -4 -16 -10z"/>
<path d="M9550 2800 c0 -5 5 -10 11 -10 5 0 7 5 4 10 -3 6 -8 10 -11 10 -2 0
-4 -4 -4 -10z"/>
<path d="M675 2790 c-4 -6 -11 -7 -17 -4 -7 4 -8 2 -4 -5 6 -8 12 -9 20 -2 7
6 17 7 21 3 5 -4 5 -1 1 6 -9 15 -13 15 -21 2z"/>
<path d="M9541 2764 c0 -11 3 -14 6 -6 3 7 2 16 -1 19 -3 4 -6 -2 -5 -13z"/>
<path d="M685 2760 c-3 -5 -1 -10 4 -10 6 0 11 5 11 10 0 6 -2 10 -4 10 -3 0
-8 -4 -11 -10z"/>
<path d="M710 2740 c0 -5 5 -10 11 -10 5 0 7 5 4 10 -3 6 -8 10 -11 10 -2 0
-4 -4 -4 -10z"/>
<path d="M9514 2723 c3 -3 -2 -11 -11 -18 -13 -9 -13 -14 -3 -20 8 -5 11 -4 7
2 -7 11 20 28 38 24 6 -2 6 1 2 5 -4 4 -15 9 -23 10 -9 1 -13 0 -10 -3z"/>
<path d="M761 2648 c9 -7 14 -19 12 -25 -6 -18 4 -16 11 2 3 9 -3 19 -17 25
-19 10 -20 9 -6 -2z"/>
<path d="M9473 2640 c-3 -11 -10 -17 -16 -13 -6 3 -7 1 -3 -6 4 -6 11 -9 15
-6 10 5 22 45 14 45 -3 0 -7 -9 -10 -20z"/>
<path d="M9447 2599 c7 -7 15 -10 18 -7 3 3 -2 9 -12 12 -14 6 -15 5 -6 -5z"/>
<path d="M760 2580 c8 -5 20 -10 25 -10 6 0 3 5 -5 10 -8 5 -19 10 -25 10 -5
0 -3 -5 5 -10z"/>
<path d="M9434 2582 c3 -5 0 -13 -6 -15 -9 -4 -10 -6 -1 -6 17 -1 25 16 12 25
-7 4 -9 3 -5 -4z"/>
<path d="M9455 2560 c-3 -5 -1 -10 4 -10 6 0 11 5 11 10 0 6 -2 10 -4 10 -3 0
-8 -4 -11 -10z"/>
<path d="M9413 2535 c-3 -9 -3 -18 -1 -21 3 -3 8 4 11 16 6 23 -1 27 -10 5z"/>
<path d="M820 2506 c0 -2 8 -10 18 -17 15 -13 16 -12 3 4 -13 16 -21 21 -21
13z"/>
<path d="M9393 2485 c0 -8 4 -15 9 -15 4 0 8 4 8 9 0 6 -4 12 -8 15 -5 3 -9
-1 -9 -9z"/>
<path d="M837 2462 c-3 -4 3 -18 14 -31 10 -13 19 -19 19 -13 0 5 -7 15 -15
22 -8 7 -12 16 -9 21 3 5 3 9 0 9 -3 0 -7 -3 -9 -8z"/>
<path d="M872 2454 c10 -10 20 -16 22 -13 3 3 -5 11 -17 18 -21 13 -21 12 -5
-5z"/>
<path d="M9317 2406 c-3 -8 2 -20 11 -27 14 -11 15 -11 5 0 -6 7 -9 20 -6 27
3 8 3 14 0 14 -3 0 -7 -6 -10 -14z"/>
<path d="M910 2400 c0 -5 5 -10 11 -10 5 0 7 5 4 10 -3 6 -8 10 -11 10 -2 0
-4 -4 -4 -10z"/>
<path d="M9300 2359 c0 -5 5 -7 10 -4 6 3 10 8 10 11 0 2 -4 4 -10 4 -5 0 -10
-5 -10 -11z"/>
<path d="M9275 2340 c-3 -5 -1 -10 4 -10 6 0 11 5 11 10 0 6 -2 10 -4 10 -3 0
-8 -4 -11 -10z"/>
<path d="M956 2302 c-3 -5 1 -9 9 -9 8 0 12 4 9 9 -3 4 -7 8 -9 8 -2 0 -6 -4
-9 -8z"/>
<path d="M9226 2243 c-6 -14 -5 -15 5 -6 7 7 10 15 7 18 -3 3 -9 -2 -12 -12z"/>
<path d="M9190 2226 c0 -2 7 -7 16 -10 8 -3 12 -2 9 4 -6 10 -25 14 -25 6z"/>
<path d="M1056 2177 c3 -10 9 -15 12 -12 3 3 0 11 -7 18 -10 9 -11 8 -5 -6z"/>
<path d="M9175 2180 c-3 -6 1 -7 9 -4 18 7 21 14 7 14 -6 0 -13 -4 -16 -10z"/>
<path d="M1096 2145 c4 -8 11 -15 16 -15 6 0 5 6 -2 15 -7 8 -14 15 -16 15 -2
0 -1 -7 2 -15z"/>
<path d="M9135 2119 c-4 -6 -4 -13 -1 -16 3 -4 6 -1 6 5 0 6 8 13 18 15 15 4
15 5 0 6 -9 0 -20 -4 -23 -10z"/>
<path d="M9093 2075 c0 -8 4 -12 9 -9 5 3 6 10 3 15 -9 13 -12 11 -12 -6z"/>
<path d="M1140 2060 c-9 -6 -10 -10 -3 -10 6 0 15 5 18 10 8 12 4 12 -15 0z"/>
<path d="M9060 2046 c0 -2 7 -6 15 -10 8 -3 15 -1 15 4 0 6 -7 10 -15 10 -8 0
-15 -2 -15 -4z"/>
<path d="M9110 2040 c0 -5 5 -10 11 -10 5 0 7 5 4 10 -3 6 -8 10 -11 10 -2 0
-4 -4 -4 -10z"/>
<path d="M1150 2020 c0 -5 5 -10 11 -10 5 0 7 5 4 10 -3 6 -8 10 -11 10 -2 0
-4 -4 -4 -10z"/>
<path d="M9054 2019 c-3 -6 -2 -15 4 -21 6 -6 12 -6 17 3 6 8 4 10 -5 4 -10
-6 -12 -4 -7 8 7 19 2 23 -9 6z"/>
<path d="M9020 2000 c0 -5 5 -10 11 -10 5 0 7 5 4 10 -3 6 -8 10 -11 10 -2 0
-4 -4 -4 -10z"/>
<path d="M1216 1974 c-9 -24 -2 -26 12 -4 7 11 8 20 3 20 -5 0 -12 -7 -15 -16z"/>
<path d="M1257 1929 c7 -7 15 -10 18 -7 3 3 -2 9 -12 12 -14 6 -15 5 -6 -5z"/>
<path d="M8987 1899 c7 -7 15 -10 18 -7 3 3 -2 9 -12 12 -14 6 -15 5 -6 -5z"/>
<path d="M1267 1879 c7 -7 15 -10 18 -7 3 3 -2 9 -12 12 -14 6 -15 5 -6 -5z"/>
<path d="M8947 1859 c7 -7 15 -10 18 -7 3 3 -2 9 -12 12 -14 6 -15 5 -6 -5z"/>
<path d="M1331 1844 c0 -11 3 -14 6 -6 3 7 2 16 -1 19 -3 4 -6 -2 -5 -13z"/>
<path d="M1296 1842 c-3 -5 1 -9 9 -9 8 0 12 4 9 9 -3 4 -7 8 -9 8 -2 0 -6 -4
-9 -8z"/>
<path d="M8930 1826 c0 -2 7 -7 16 -10 8 -3 12 -2 9 4 -6 10 -25 14 -25 6z"/>
<path d="M1357 1783 c-9 -8 12 -33 27 -33 6 0 3 5 -7 11 -9 6 -15 14 -12 20 7
10 2 12 -8 2z"/>
<path d="M8803 1758 c-15 -20 -25 -38 -20 -38 3 0 12 11 21 25 17 26 16 35 -1
13z"/>
<path d="M1415 1750 c-3 -5 -1 -10 4 -10 6 0 11 5 11 10 0 6 -2 10 -4 10 -3 0
-8 -4 -11 -10z"/>
<path d="M1426 1719 c3 -5 9 -7 14 -4 4 3 11 0 13 -5 3 -6 4 -5 3 1 -1 7 -10
13 -19 15 -9 1 -15 -2 -11 -7z"/>
<path d="M8796 1693 c-6 -14 -5 -15 5 -6 7 7 10 15 7 18 -3 3 -9 -2 -12 -12z"/>
<path d="M1430 1680 c0 -5 5 -10 11 -10 5 0 7 5 4 10 -3 6 -8 10 -11 10 -2 0
-4 -4 -4 -10z"/>
<path d="M8766 1662 c-3 -5 1 -9 9 -9 8 0 12 4 9 9 -3 4 -7 8 -9 8 -2 0 -6 -4
-9 -8z"/>
<path d="M1490 1642 c0 -4 11 -8 25 -8 28 0 24 8 -5 13 -11 2 -20 -1 -20 -5z"/>
<path d="M8710 1636 c0 -2 8 -10 18 -17 15 -13 16 -12 3 4 -13 16 -21 21 -21
13z"/>
<path d="M1539 1618 c-5 -18 -6 -38 -1 -34 7 8 12 36 6 36 -2 0 -4 -1 -5 -2z"/>
<path d="M8665 1611 c-3 -5 -2 -12 3 -15 5 -3 9 1 9 9 0 17 -3 19 -12 6z"/>
<path d="M1613 1515 c0 -8 4 -12 9 -9 5 3 6 10 3 15 -9 13 -12 11 -12 -6z"/>
<path d="M8586 1518 c3 -5 10 -6 15 -3 13 9 11 12 -6 12 -8 0 -12 -4 -9 -9z"/>
<path d="M1636 1503 c-6 -14 -5 -15 5 -6 7 7 10 15 7 18 -3 3 -9 -2 -12 -12z"/>
<path d="M8535 1480 c-3 -5 -1 -10 4 -10 6 0 11 5 11 10 0 6 -2 10 -4 10 -3 0
-8 -4 -11 -10z"/>
<path d="M1656 1462 c-3 -5 1 -9 9 -9 8 0 12 4 9 9 -3 4 -7 8 -9 8 -2 0 -6 -4
-9 -8z"/>
<path d="M1713 1452 c2 -12 6 -24 10 -28 3 -4 4 4 2 16 -6 30 -16 40 -12 12z"/>
<path d="M8565 1460 c-3 -6 1 -7 9 -4 18 7 21 14 7 14 -6 0 -13 -4 -16 -10z"/>
<path d="M8516 1445 c-9 -26 -7 -32 5 -12 6 10 9 21 6 23 -2 3 -7 -2 -11 -11z"/>
<path d="M1715 1400 c3 -5 8 -10 11 -10 2 0 4 5 4 10 0 6 -5 10 -11 10 -5 0
-7 -4 -4 -10z"/>
<path d="M8456 1382 c-3 -4 4 -9 15 -9 23 -2 25 3 4 10 -8 4 -16 3 -19 -1z"/>
<path d="M1775 1369 c-4 -6 -5 -12 -2 -15 2 -3 7 2 10 11 7 17 1 20 -8 4z"/>
<path d="M8406 1361 c-3 -5 1 -11 9 -14 9 -4 12 -1 8 9 -6 16 -10 17 -17 5z"/>
<path d="M1846 1335 c10 -8 23 -15 28 -15 6 0 1 7 -10 15 -10 8 -23 15 -28 15
-6 0 -1 -7 10 -15z"/>
<path d="M8366 1325 c-9 -26 -7 -32 5 -12 6 10 9 21 6 23 -2 3 -7 -2 -11 -11z"/>
<path d="M1830 1320 c0 -5 5 -10 11 -10 5 0 7 5 4 10 -3 6 -8 10 -11 10 -2 0
-4 -4 -4 -10z"/>
<path d="M1869 1283 c-13 -16 -12 -17 4 -4 9 7 17 15 17 17 0 8 -8 3 -21 -13z"/>
<path d="M1913 1285 c0 -8 4 -12 9 -9 5 3 6 10 3 15 -9 13 -12 11 -12 -6z"/>
<path d="M8317 1269 c7 -7 15 -10 18 -7 3 3 -2 9 -12 12 -14 6 -15 5 -6 -5z"/>
<path d="M1920 1260 c-8 -5 -10 -10 -5 -10 6 0 17 5 25 10 8 5 11 10 5 10 -5
0 -17 -5 -25 -10z"/>
<path d="M8290 1260 c0 -5 5 -10 11 -10 5 0 7 5 4 10 -3 6 -8 10 -11 10 -2 0
-4 -4 -4 -10z"/>
<path d="M8265 1249 c-4 -6 -5 -12 -2 -15 2 -3 7 2 10 11 7 17 1 20 -8 4z"/>
<path d="M8240 1220 c8 -5 20 -10 25 -10 6 0 3 5 -5 10 -8 5 -19 10 -25 10 -5
0 -3 -5 5 -10z"/>
<path d="M8310 1226 c0 -2 7 -7 16 -10 8 -3 12 -2 9 4 -6 10 -25 14 -25 6z"/>
<path d="M1994 1209 c-3 -6 -2 -15 3 -20 5 -5 9 -1 10 11 2 22 -2 25 -13 9z"/>
<path d="M2027 1186 c-4 -10 -1 -13 8 -9 8 3 12 9 9 14 -7 12 -11 11 -17 -5z"/>
<path d="M2044 1159 c-4 -7 -3 -9 4 -5 5 3 13 0 15 -6 4 -9 6 -10 6 -1 1 17
-16 25 -25 12z"/>
<path d="M8200 1160 c-9 -6 -10 -10 -3 -10 6 0 15 5 18 10 8 12 4 12 -15 0z"/>
<path d="M2097 1125 c3 -8 9 -12 14 -9 12 7 11 11 -5 17 -10 4 -13 1 -9 -8z"/>
<path d="M2149 1083 c-13 -16 -12 -17 4 -4 16 13 21 21 13 21 -2 0 -10 -8 -17
-17z"/>
<path d="M2215 1031 c-3 -5 0 -13 6 -17 7 -4 9 -3 5 4 -3 5 0 13 6 15 9 4 10
6 1 6 -6 1 -14 -3 -18 -8z"/>
<path d="M7959 1013 c-12 -16 -12 -17 2 -6 9 7 20 9 24 5 5 -4 5 -1 1 6 -9 16
-11 15 -27 -5z"/>
<path d="M2268 1013 c7 -3 16 -2 19 1 4 3 -2 6 -13 5 -11 0 -14 -3 -6 -6z"/>
<path d="M2306 958 c3 -5 10 -6 15 -3 13 9 11 12 -6 12 -8 0 -12 -4 -9 -9z"/>
<path d="M7886 957 c3 -10 9 -15 12 -12 3 3 0 11 -7 18 -10 9 -11 8 -5 -6z"/>
<path d="M7920 962 c0 -5 7 -9 15 -9 8 0 12 4 9 9 -3 4 -9 8 -15 8 -5 0 -9 -4
-9 -8z"/>
<path d="M2375 920 c3 -5 8 -10 11 -10 2 0 4 5 4 10 0 6 -5 10 -11 10 -5 0 -7
-4 -4 -10z"/>
<path d="M2400 926 c0 -2 7 -7 16 -10 8 -3 12 -2 9 4 -6 10 -25 14 -25 6z"/>
<path d="M7755 884 l-20 -16 20 4 c12 2 19 -2 17 -10 -1 -8 2 -11 8 -7 8 5 8
11 1 19 -6 7 -8 16 -4 19 12 12 -2 7 -22 -9z"/>
<path d="M2446 882 c-3 -5 1 -9 9 -9 8 0 15 4 15 9 0 4 -4 8 -9 8 -6 0 -12 -4
-15 -8z"/>
<path d="M7715 860 c-3 -5 -1 -10 4 -10 6 0 11 5 11 10 0 6 -2 10 -4 10 -3 0
-8 -4 -11 -10z"/>
<path d="M2510 846 c0 -2 7 -6 15 -10 8 -3 15 -1 15 4 0 6 -7 10 -15 10 -8 0
-15 -2 -15 -4z"/>
<path d="M7740 846 c0 -2 8 -10 18 -17 15 -13 16 -12 3 4 -13 16 -21 21 -21
13z"/>
<path d="M7633 785 c0 -8 4 -12 9 -9 5 3 6 10 3 15 -9 13 -12 11 -12 -6z"/>
<path d="M2625 759 c-3 -4 2 -6 10 -5 21 3 28 13 10 13 -9 0 -18 -4 -20 -8z"/>
<path d="M2716 733 c-6 -14 -5 -15 5 -6 7 7 10 15 7 18 -3 3 -9 -2 -12 -12z"/>
<path d="M7466 722 c-3 -5 1 -9 9 -9 8 0 12 4 9 9 -3 4 -7 8 -9 8 -2 0 -6 -4
-9 -8z"/>
<path d="M7530 719 c0 -5 5 -7 10 -4 6 3 10 8 10 11 0 2 -4 4 -10 4 -5 0 -10
-5 -10 -11z"/>
<path d="M2755 710 c-4 -6 -11 -7 -17 -4 -7 4 -8 2 -4 -5 6 -9 12 -9 24 1 10
7 19 14 21 15 2 2 -1 3 -7 3 -6 0 -14 -5 -17 -10z"/>
<path d="M7446 685 c-18 -14 -18 -14 1 -12 11 0 20 7 20 14 0 7 -1 13 -1 13
-1 0 -9 -7 -20 -15z"/>
<path d="M2819 673 c-12 -16 -12 -17 2 -6 9 7 20 9 24 5 5 -4 5 -1 1 6 -9 16
-11 15 -27 -5z"/>
<path d="M2851 647 c-13 -21 -12 -21 5 -5 10 10 16 20 13 22 -3 3 -11 -5 -18
-17z"/>
<path d="M2907 639 c7 -7 15 -10 18 -7 3 3 -2 9 -12 12 -14 6 -15 5 -6 -5z"/>
<path d="M7330 638 c0 -6 3 -8 7 -5 3 4 13 1 22 -6 14 -11 14 -10 2 6 -15 20
-31 22 -31 5z"/>
<path d="M7376 638 c3 -4 11 -5 19 -1 21 7 19 12 -4 10 -11 0 -18 -5 -15 -9z"/>
<path d="M7293 609 c-2 -23 3 -25 10 -4 4 8 3 16 -1 19 -4 3 -9 -4 -9 -15z"/>
<path d="M7237 595 c-4 -8 -3 -16 1 -19 4 -3 9 4 9 15 2 23 -3 25 -10 4z"/>
<path d="M2988 583 c7 -3 16 -2 19 1 4 3 -2 6 -13 5 -11 0 -14 -3 -6 -6z"/>
<path d="M3024 562 c4 -3 14 -7 22 -8 9 -1 13 0 10 4 -4 3 -14 7 -22 8 -9 1
-13 0 -10 -4z"/>
<path d="M3095 549 c-4 -6 -5 -12 -2 -15 2 -3 7 2 10 11 7 17 1 20 -8 4z"/>
<path d="M7113 528 c-2 -18 0 -20 7 -8 12 18 13 30 2 30 -4 0 -9 -10 -9 -22z"/>
<path d="M3130 521 c0 -6 4 -13 10 -16 6 -3 7 1 4 9 -7 18 -14 21 -14 7z"/>
<path d="M7070 520 c0 -5 5 -10 11 -10 5 0 7 5 4 10 -3 6 -8 10 -11 10 -2 0
-4 -4 -4 -10z"/>
<path d="M3186 505 c-11 -8 -15 -15 -9 -15 6 0 16 7 23 15 16 19 11 19 -14 0z"/>
<path d="M3215 500 c-3 -5 -1 -10 4 -10 6 0 11 5 11 10 0 6 -2 10 -4 10 -3 0
-8 -4 -11 -10z"/>
<path d="M7020 500 c8 -5 20 -10 25 -10 6 0 3 5 -5 10 -8 5 -19 10 -25 10 -5
0 -3 -5 5 -10z"/>
<path d="M6993 485 c0 -8 4 -12 9 -9 5 3 6 10 3 15 -9 13 -12 11 -12 -6z"/>
<path d="M3256 473 c-6 -14 -5 -15 5 -6 7 7 10 15 7 18 -3 3 -9 -2 -12 -12z"/>
<path d="M3280 476 c0 -8 4 -17 9 -20 5 -4 7 3 4 14 -6 23 -13 26 -13 6z"/>
<path d="M6966 475 c4 -8 8 -15 10 -15 2 0 4 7 4 15 0 8 -4 15 -10 15 -5 0 -7
-7 -4 -15z"/>
<path d="M3315 461 c-3 -6 3 -14 13 -20 14 -7 19 -6 19 4 0 7 -7 11 -15 7 -10
-3 -13 -1 -8 6 4 7 5 12 2 12 -3 0 -7 -4 -11 -9z"/>
<path d="M3255 440 c-3 -5 -1 -10 4 -10 6 0 11 5 11 10 0 6 -2 10 -4 10 -3 0
-8 -4 -11 -10z"/>
<path d="M3374 428 c-4 -7 -3 -8 4 -4 6 4 22 2 34 -4 22 -11 22 -10 4 4 -24
19 -32 20 -42 4z"/>
<path d="M6771 411 c-8 -5 -9 -11 -3 -15 5 -3 12 1 16 9 6 17 6 18 -13 6z"/>
<path d="M6810 417 c0 -2 6 -10 14 -16 11 -9 16 -9 22 1 4 7 4 10 -1 6 -4 -4
-14 -3 -22 3 -7 6 -13 9 -13 6z"/>
<path d="M6736 383 c-6 -14 -5 -15 5 -6 7 7 10 15 7 18 -3 3 -9 -2 -12 -12z"/>
<path d="M3565 360 c-3 -6 1 -7 9 -4 18 7 21 14 7 14 -6 0 -13 -4 -16 -10z"/>
<path d="M6654 359 c-3 -6 -1 -16 6 -22 10 -9 11 -9 5 2 -4 8 -2 17 6 22 9 6
10 9 2 9 -6 0 -15 -5 -19 -11z"/>
<path d="M6696 358 c3 -5 10 -6 15 -3 13 9 11 12 -6 12 -8 0 -12 -4 -9 -9z"/>
<path d="M6579 348 c-6 -21 -5 -37 2 -32 5 3 7 9 4 14 -3 4 1 11 7 13 10 4 10
6 1 6 -7 1 -13 0 -14 -1z"/>
<path d="M3690 336 c0 -2 7 -9 15 -16 9 -7 15 -8 15 -2 0 5 -7 12 -15 16 -8 3
-15 4 -15 2z"/>
<path d="M6533 322 c2 -12 6 -24 10 -28 3 -4 4 4 2 16 -6 30 -16 40 -12 12z"/>
<path d="M6371 291 c-8 -5 -9 -11 -3 -15 5 -3 12 1 16 9 6 17 6 18 -13 6z"/>
<path d="M6413 285 c0 -7 6 -11 14 -8 7 3 13 6 13 8 0 2 -6 5 -13 8 -8 3 -14
-1 -14 -8z"/>
<path d="M3830 278 c0 -6 3 -8 7 -5 3 4 13 1 22 -6 14 -11 14 -10 2 6 -15 20
-31 22 -31 5z"/>
<path d="M6456 278 c3 -4 11 -5 19 -1 21 7 19 12 -4 10 -11 0 -18 -5 -15 -9z"/>
<path d="M6340 266 c0 -2 7 -7 16 -10 8 -3 12 -2 9 4 -6 10 -25 14 -25 6z"/>
<path d="M3910 240 c0 -5 5 -10 11 -10 5 0 7 5 4 10 -3 6 -8 10 -11 10 -2 0
-4 -4 -4 -10z"/>
<path d="M3946 238 c3 -5 10 -6 15 -3 13 9 11 12 -6 12 -8 0 -12 -4 -9 -9z"/>
<path d="M4035 240 c3 -5 8 -10 11 -10 2 0 4 5 4 10 0 6 -5 10 -11 10 -5 0 -7
-4 -4 -10z"/>
<path d="M6195 241 c-3 -5 -2 -12 3 -15 5 -3 9 1 9 9 0 17 -3 19 -12 6z"/>
<path d="M6294 242 c4 -3 14 -7 22 -8 9 -1 13 0 10 4 -4 3 -14 7 -22 8 -9 1
-13 0 -10 -4z"/>
<path d="M4013 225 c0 -8 4 -12 9 -9 5 3 6 10 3 15 -9 13 -12 11 -12 -6z"/>
<path d="M4169 203 c-13 -16 -12 -17 4 -4 16 13 21 21 13 21 -2 0 -10 -8 -17
-17z"/>
<path d="M6068 213 c6 -2 9 -10 6 -15 -4 -7 -2 -8 5 -4 13 9 5 26 -12 25 -9 0
-8 -2 1 -6z"/>
<path d="M6136 207 c3 -10 9 -15 12 -12 3 3 0 11 -7 18 -10 9 -11 8 -5 -6z"/>
<path d="M4415 180 c-3 -5 -1 -10 4 -10 6 0 11 5 11 10 0 6 -2 10 -4 10 -3 0
-8 -4 -11 -10z"/>
<path d="M5830 180 c0 -5 5 -10 10 -10 6 0 10 5 10 10 0 6 -4 10 -10 10 -5 0
-10 -4 -10 -10z"/>
<path d="M5947 179 c7 -7 15 -10 18 -7 3 3 -2 9 -12 12 -14 6 -15 5 -6 -5z"/>
<path d="M4519 168 c-5 -18 -6 -38 -1 -34 7 8 12 36 6 36 -2 0 -4 -1 -5 -2z"/>
<path d="M5670 158 c0 -3 9 -6 20 -5 11 1 20 5 20 9 0 3 -9 6 -20 5 -11 -1
-20 -5 -20 -9z"/>
<path d="M4660 146 c0 -2 11 -6 25 -8 13 -3 22 -1 19 3 -5 9 -44 13 -44 5z"/>
<path d="M5395 140 c3 -5 8 -10 11 -10 2 0 4 5 4 10 0 6 -5 10 -11 10 -5 0 -7
-4 -4 -10z"/>
<path d="M5453 135 c-3 -9 -3 -18 -1 -21 3 -3 8 4 11 16 6 23 -1 27 -10 5z"/>
<path d="M5599 133 c-13 -16 -12 -17 4 -4 9 7 17 15 17 17 0 8 -8 3 -21 -13z"/>
<path d="M5756 142 c-3 -5 1 -9 9 -9 8 0 12 4 9 9 -3 4 -7 8 -9 8 -2 0 -6 -4
-9 -8z"/>
<path d="M4953 125 c0 -8 4 -15 9 -15 4 0 8 4 8 9 0 6 -4 12 -8 15 -5 3 -9 -1
-9 -9z"/>
<path d="M5092 116 c1 -14 5 -23 9 -20 7 4 0 44 -7 44 -2 0 -3 -11 -2 -24z"/>
<path d="M5322 124 c10 -10 20 -16 22 -13 3 3 -5 11 -17 18 -21 13 -21 12 -5
-5z"/>
<path d="M5279 113 c-13 -16 -12 -17 4 -4 16 13 21 21 13 21 -2 0 -10 -8 -17
-17z"/>
<path d="M5520 120 c-9 -6 -10 -10 -3 -10 6 0 15 5 18 10 8 12 4 12 -15 0z"/>
<path d="M5056 107 c3 -10 9 -15 12 -12 3 3 0 11 -7 18 -10 9 -11 8 -5 -6z"/>
<path d="M5375 100 c-3 -5 -1 -10 4 -10 6 0 11 5 11 10 0 6 -2 10 -4 10 -3 0
-8 -4 -11 -10z"/>
</g>
</svg>
